{"glyphs":{"0":{"ha":972,"x_min":null,"x_max":null,"o":"m 604 354 b 486 208 604 264 549 208 b 368 354 424 208 368 264 l 368 618 b 486 764 368 708 424 764 b 604 618 549 764 604 708 z m 56 354 b 486 -28 56 139 222 -28 b 917 354 750 -28 917 139 l 917 618 b 486 1000 917 833 750 1000 b 56 618 222 1000 56 833 z "},"1":{"ha":674,"x_min":null,"x_max":null,"o":"m 583 847 b 431 986 583 931 528 986 b 278 924 333 986 278 924 l 56 694 b 0 583 56 694 0 639 b 125 458 0 514 56 458 b 264 528 208 458 264 528 l 278 528 l 278 125 b 431 -14 278 42 333 -14 b 583 125 528 -14 583 42 z "},"2":{"ha":875,"x_min":null,"x_max":null,"o":"m 847 660 b 417 1000 847 847 694 1000 b 35 763 174 1000 35 874 b 188 639 35 686 83 639 b 417 736 299 639 313 736 b 528 660 493 736 528 701 b 14 153 528 528 14 500 b 181 0 14 69 83 0 l 694 0 b 847 139 792 0 847 57 b 694 278 847 222 792 278 l 431 278 l 431 292 b 847 660 583 389 847 417 z "},"3":{"ha":889,"x_min":null,"x_max":null,"o":"m 750 694 b 833 833 750 694 833 750 b 681 972 833 917 778 972 l 201 972 b 49 833 104 972 49 917 b 201 694 49 750 104 694 l 403 694 l 403 681 l 264 590 b 194 486 264 590 194 549 b 306 389 194 431 236 389 l 431 389 b 542 313 507 389 542 354 b 417 236 542 271 507 236 b 167 333 292 236 278 333 b 14 207 63 333 14 285 b 417 -28 14 111 153 -28 b 861 299 708 -28 861 125 b 583 569 861 542 583 569 l 583 583 z "},"4":{"ha":972,"x_min":null,"x_max":null,"o":"m 819 208 b 958 347 903 208 958 264 b 819 486 958 431 903 486 l 819 819 b 625 1000 819 917 736 1000 b 319 818 472 1000 404 931 l 69 486 b 14 347 69 486 14 417 b 167 208 14 264 69 208 l 514 208 l 514 125 b 667 -14 514 42 569 -14 b 819 125 764 -14 819 42 z m 382 486 l 382 500 l 500 653 l 514 653 l 514 486 z "},"5":{"ha":889,"x_min":null,"x_max":null,"o":"m 382 694 l 674 694 b 826 833 771 694 826 750 b 674 972 826 917 771 972 l 201 972 b 76 847 118 972 76 931 l 76 514 b 229 375 76 431 132 375 b 438 403 326 375 340 403 b 549 319 507 403 549 361 b 431 236 549 278 507 236 b 181 333 306 236 292 333 b 28 207 83 333 28 292 b 431 -28 28 111 167 -28 b 868 319 715 -28 868 125 b 521 625 868 486 729 625 b 382 611 451 625 382 611 z "},"6":{"ha":924,"x_min":null,"x_max":null,"o":"m 375 375 b 458 389 375 375 417 389 b 583 306 542 389 583 347 b 486 222 583 264 542 222 b 375 335 424 222 375 271 z m 375 632 b 486 736 375 693 417 736 b 715 639 590 736 604 639 b 868 763 819 639 868 686 b 486 1000 868 874 729 1000 b 56 632 208 1000 56 847 l 56 333 b 486 -28 56 132 215 -28 b 903 306 764 -28 903 111 b 514 625 903 486 764 625 b 375 611 431 625 375 611 z "},"7":{"ha":826,"x_min":null,"x_max":null,"o":"m 792 694 b 826 833 792 694 826 764 b 674 972 826 917 771 972 l 153 972 b 0 833 56 972 0 917 b 153 694 0 750 56 694 l 444 694 l 444 681 l 222 222 b 194 111 222 222 194 167 b 354 -14 194 49 264 -14 b 507 97 431 -14 479 35 z "},"8":{"ha":931,"x_min":null,"x_max":null,"o":"m 465 1000 b 76 736 201 1000 76 875 b 215 542 76 597 215 542 l 215 528 b 21 278 215 528 21 472 b 465 -28 21 111 160 -28 b 910 278 771 -28 910 111 b 715 528 910 472 715 528 l 715 542 b 854 736 715 542 854 597 b 465 1000 854 875 729 1000 z m 465 208 b 340 306 389 208 340 257 b 465 417 340 347 382 389 b 590 306 549 389 590 347 b 465 208 590 257 542 208 z m 465 625 b 396 708 424 639 396 667 b 465 771 396 743 424 771 b 535 708 507 771 535 743 b 465 625 535 667 507 639 z "},"9":{"ha":924,"x_min":null,"x_max":null,"o":"m 549 597 b 465 583 549 597 507 583 b 340 667 382 583 340 625 b 438 750 340 708 382 750 b 549 638 500 750 549 701 z m 549 340 b 438 236 549 279 507 236 b 208 333 333 236 319 333 b 56 210 104 333 56 286 b 438 -28 56 99 194 -28 b 868 340 715 -28 868 125 l 868 639 b 438 1000 868 840 708 1000 b 21 667 160 1000 21 861 b 410 347 21 486 160 347 b 549 361 493 347 549 361 z "},"J":{"ha":646,"x_min":null,"x_max":null,"o":"m 250 417 b -28 111 250 181 -28 292 b 125 -28 -28 28 28 -28 b 556 417 375 -28 556 153 l 556 847 b 403 986 556 931 500 986 b 250 847 306 986 250 931 z "},"K":{"ha":993,"x_min":null,"x_max":null,"o":"m 472 354 l 708 56 b 840 -14 708 56 764 -14 b 993 125 938 -14 993 42 b 938 250 993 181 938 250 l 701 549 l 896 736 b 951 847 896 736 951 778 b 813 986 951 931 896 986 b 701 944 743 986 701 944 l 396 653 l 396 847 b 243 986 396 931 340 986 b 90 847 146 986 90 931 l 90 125 b 243 -14 90 42 146 -14 b 396 125 340 -14 396 42 l 396 285 z "},"L":{"ha":882,"x_min":null,"x_max":null,"o":"m 396 278 l 396 847 b 243 986 396 931 340 986 b 90 847 146 986 90 931 l 90 139 b 243 0 90 56 146 0 l 729 0 b 882 139 826 0 882 56 b 729 278 882 222 826 278 z "},"N":{"ha":1083,"x_min":null,"x_max":null,"o":"m 410 444 l 646 125 b 840 -14 708 35 757 -14 b 993 125 938 -14 993 43 l 993 847 b 840 986 993 931 938 986 b 688 847 743 986 688 931 l 688 528 l 674 528 l 438 847 b 243 986 375 938 326 986 b 90 847 146 986 90 929 l 90 125 b 243 -14 90 42 146 -14 b 396 125 340 -14 396 42 l 396 444 z "},"Q":{"ha":1042,"x_min":null,"x_max":null,"o":"m 917 153 b 986 389 917 153 986 243 l 986 583 b 521 1000 986 819 806 1000 b 56 583 236 1000 56 819 l 56 389 b 521 -28 56 153 236 -28 b 701 0 646 -28 701 0 l 771 -62 b 847 -90 771 -62 799 -90 b 979 42 924 -90 979 -35 b 951 118 979 90 951 118 z m 674 389 b 597 417 674 389 646 417 b 465 285 521 417 465 361 b 493 208 465 236 493 208 b 368 389 438 222 368 292 l 368 583 b 521 764 368 694 438 764 b 674 583 604 764 674 694 z "},"R":{"ha":1014,"x_min":null,"x_max":null,"o":"m 479 347 l 701 56 b 826 -14 701 56 757 -14 b 993 125 938 -14 993 42 b 938 250 993 181 938 250 l 799 417 l 799 431 b 951 660 799 431 951 486 b 535 972 951 847 826 972 l 243 972 b 90 833 146 972 90 917 l 90 125 b 243 -14 90 42 146 -14 b 396 125 340 -14 396 42 l 396 347 z m 396 583 l 396 736 l 535 736 b 632 660 597 736 632 701 b 535 583 632 618 597 583 z "},"S":{"ha":896,"x_min":null,"x_max":null,"o":"m 556 306 b 417 236 556 271 521 236 b 174 333 299 236 285 333 b 21 208 69 333 21 285 b 417 -28 21 111 160 -28 b 875 306 722 -28 875 125 b 361 681 875 625 361 583 b 458 736 361 708 389 736 b 688 639 563 736 576 639 b 840 764 792 639 840 688 b 458 1000 840 861 701 1000 b 42 681 181 1000 42 861 b 556 306 42 347 556 389 z "},"U":{"ha":1069,"x_min":null,"x_max":null,"o":"m 535 -28 b 979 375 813 -28 979 139 l 979 847 b 826 986 979 931 924 986 b 674 847 729 986 674 931 l 674 375 b 535 222 674 278 618 222 b 396 375 451 222 396 278 l 396 847 b 243 986 396 931 340 986 b 90 847 146 986 90 931 l 90 375 b 535 -28 90 139 257 -28 z "},"V":{"ha":972,"x_min":null,"x_max":null,"o":"m 493 319 l 479 319 l 319 847 b 153 986 296 931 243 986 b 0 847 63 986 0 924 b 35 722 0 806 35 722 l 243 139 b 486 -28 279 35 347 -28 b 729 139 625 -28 693 35 l 938 722 b 972 847 938 722 972 806 b 819 986 972 924 910 986 b 653 847 729 986 676 931 z "},"Y":{"ha":944,"x_min":null,"x_max":null,"o":"m 465 653 l 285 917 b 160 986 285 917 236 986 b 0 847 56 986 0 931 b 56 722 0 792 56 722 l 319 347 l 319 125 b 472 -14 319 42 375 -14 b 625 125 569 -14 625 42 l 625 347 l 889 722 b 944 847 889 722 944 792 b 785 986 944 931 889 986 b 660 917 708 986 660 917 l 479 653 z "},"Z":{"ha":875,"x_min":null,"x_max":null,"o":"m 56 278 b 0 139 56 278 0 222 b 153 0 0 56 56 0 l 722 0 b 875 139 819 0 875 56 b 722 278 875 222 819 278 l 458 278 l 458 292 l 806 694 b 861 833 806 694 861 750 b 708 972 861 917 806 972 l 167 972 b 14 833 69 972 14 917 b 167 694 14 750 69 694 l 431 694 l 431 681 z "},"W":{"ha":1514,"x_min":null,"x_max":null,"o":"m 764 500 l 840 139 b 1076 -28 867 42 938 -28 b 1313 139 1215 -28 1286 42 l 1472 722 b 1500 847 1472 722 1500 806 b 1347 986 1500 924 1438 986 b 1174 847 1250 986 1194 931 l 1063 389 l 1049 389 l 958 819 b 757 986 936 924 875 986 b 556 819 639 986 578 924 l 465 389 l 451 389 l 340 847 b 167 986 319 931 264 986 b 14 847 76 986 14 924 b 42 722 14 806 42 722 l 201 139 b 438 -28 228 42 299 -28 b 674 139 576 -28 647 42 l 750 500 z "},"Г":{"ha":868,"x_min":null,"x_max":null,"o":"m 243 972 b 90 833 146 972 90 917 l 90 125 b 243 -14 90 42 146 -14 b 396 125 340 -14 396 42 l 396 694 l 715 694 b 868 833 813 694 868 750 b 715 972 868 917 813 972 z "},"Д":{"ha":1139,"x_min":null,"x_max":null,"o":"m 111 278 b -14 154 28 278 -14 236 l -14 -69 b 139 -208 -14 -153 42 -208 b 292 -69 236 -208 292 -153 l 292 0 l 813 0 l 813 -69 b 965 -208 813 -153 868 -208 b 1118 -69 1063 -208 1118 -153 l 1118 151 b 993 278 1118 236 1076 278 l 979 278 l 979 833 b 826 972 979 917 924 972 l 347 972 b 194 833 250 972 194 917 l 194 500 b 111 278 194 375 111 278 z m 674 278 l 424 278 l 424 292 b 500 500 424 292 500 375 l 500 694 l 674 694 z "},"Ё":{"ha":951,"x_min":null,"x_max":null,"o":"m 333 1056 b 472 1181 417 1056 472 1111 b 333 1306 472 1250 417 1306 b 194 1181 250 1306 194 1250 b 333 1056 194 1111 250 1056 z m 660 1056 b 799 1181 743 1056 799 1111 b 660 1306 799 1250 743 1306 b 521 1181 576 1306 521 1250 b 660 1056 521 1111 576 1056 z m 771 694 b 924 833 868 694 924 750 b 771 972 924 917 868 972 l 243 972 b 90 833 146 972 90 917 l 90 139 b 243 0 90 56 146 0 l 785 0 b 938 139 882 0 938 56 b 785 278 938 222 882 278 l 396 278 l 396 361 l 660 361 b 799 486 743 361 799 417 b 660 611 799 556 743 611 l 396 611 l 396 694 z "},"Ж":{"ha":1444,"x_min":null,"x_max":null,"o":"m 722 986 b 569 847 625 986 569 931 l 569 667 l 278 944 b 167 986 278 944 236 986 b 28 847 83 986 28 931 b 83 736 28 778 83 736 l 285 542 l 56 250 b 0 125 56 250 0 181 b 153 -14 0 42 56 -14 b 285 56 229 -14 285 56 l 514 347 l 569 299 l 569 125 b 722 -14 569 42 625 -14 b 875 125 819 -14 875 42 l 875 299 l 931 347 l 1160 56 b 1292 -14 1160 56 1215 -14 b 1444 125 1389 -14 1444 42 b 1389 250 1444 181 1389 250 l 1160 542 l 1361 736 b 1417 847 1361 736 1417 778 b 1278 986 1417 931 1361 986 b 1167 944 1208 986 1167 944 l 875 667 l 875 847 b 722 986 875 931 819 986 z "},"З":{"ha":903,"x_min":null,"x_max":null,"o":"m 388 625 b 257 500 299 625 257 569 b 388 375 257 432 313 375 l 451 375 b 556 306 521 375 556 340 b 417 236 556 271 521 236 b 174 333 299 236 285 333 b 21 208 69 333 21 285 b 417 -28 21 111 160 -28 b 875 278 736 -28 875 111 b 681 486 875 444 681 486 l 681 500 b 847 694 681 500 847 542 b 431 1000 847 861 708 1000 b 49 764 188 1000 49 861 b 201 639 49 688 97 639 b 431 736 313 639 326 736 b 528 681 500 736 528 708 b 451 625 528 653 500 625 z "},"Й":{"ha":1083,"x_min":null,"x_max":null,"o":"m 396 528 l 396 847 b 243 986 396 931 340 986 b 90 847 146 986 90 931 l 90 125 b 243 -14 90 43 146 -14 b 438 125 326 -14 375 35 l 674 444 l 688 444 l 688 125 b 840 -14 688 42 743 -14 b 993 125 938 -14 993 42 l 993 847 b 840 986 993 929 938 986 b 646 847 757 986 708 938 l 410 528 z m 556 1250 b 361 1333 451 1250 465 1333 b 264 1236 306 1333 264 1292 b 556 1028 264 1139 375 1028 b 847 1236 736 1028 847 1139 b 750 1333 847 1292 806 1333 b 556 1250 646 1333 660 1250 z "},"Л":{"ha":1069,"x_min":null,"x_max":null,"o":"m 486 500 l 486 694 l 674 694 l 674 125 b 826 -14 674 42 729 -14 b 979 125 924 -14 979 42 l 979 833 b 826 972 979 917 924 972 l 333 972 b 181 833 236 972 181 917 l 181 500 b -14 111 181 181 -14 250 b 125 -28 -14 28 42 -28 b 486 500 306 -28 486 153 z "},"П":{"ha":1069,"x_min":null,"x_max":null,"o":"m 243 972 b 90 833 146 972 90 917 l 90 125 b 243 -14 90 42 146 -14 b 396 125 340 -14 396 42 l 396 694 l 674 694 l 674 125 b 826 -14 674 42 729 -14 b 979 125 924 -14 979 42 l 979 833 b 826 972 979 917 924 972 z "},"У":{"ha":924,"x_min":null,"x_max":null,"o":"m 306 264 b 264 236 306 264 292 236 b 167 264 236 236 222 264 b 42 139 97 264 42 208 b 264 -28 42 49 118 -28 b 667 264 458 -28 594 111 l 889 722 b 924 847 889 722 924 778 b 771 986 924 924 861 986 b 604 847 694 986 642 931 l 486 556 l 472 556 l 319 847 b 153 986 278 931 229 986 b 0 847 63 986 0 924 b 35 722 0 778 35 722 z "},"Ф":{"ha":1375,"x_min":null,"x_max":null,"o":"m 840 653 b 910 667 840 653 868 667 b 1021 569 986 667 1021 632 l 1021 403 b 910 306 1021 340 986 306 b 840 319 868 306 840 319 z m 688 -97 b 840 42 785 -97 840 -42 l 840 83 b 993 56 840 83 910 56 b 1326 403 1188 56 1326 194 l 1326 569 b 993 917 1326 778 1188 917 b 840 889 910 917 840 889 l 840 931 b 688 1069 840 1013 785 1069 b 535 931 590 1069 535 1013 l 535 889 b 382 917 535 889 465 917 b 49 569 188 917 49 778 l 49 403 b 382 56 49 194 188 56 b 535 83 465 56 535 83 l 535 42 b 688 -97 535 -42 590 -97 z m 535 319 b 465 306 535 319 507 306 b 354 403 389 306 354 340 l 354 569 b 465 667 354 632 389 667 b 535 653 507 667 535 653 z "},"Ц":{"ha":1125,"x_min":null,"x_max":null,"o":"m 799 0 l 799 -69 b 951 -208 799 -153 854 -208 b 1104 -69 1049 -208 1104 -153 l 1104 153 b 979 278 1104 236 1063 278 l 965 278 l 965 847 b 813 986 965 931 910 986 b 660 847 715 986 660 931 l 660 278 l 396 278 l 396 847 b 243 986 396 931 340 986 b 90 847 146 986 90 931 l 90 139 b 243 0 90 56 146 0 z "},"Ч":{"ha":1028,"x_min":null,"x_max":null,"o":"m 785 986 b 632 846 688 986 632 931 l 632 569 b 486 542 632 569 576 542 b 368 667 417 542 368 590 l 368 847 b 215 986 368 931 313 986 b 63 847 119 986 63 931 l 63 667 b 431 292 63 444 215 292 b 632 319 549 292 632 319 l 632 125 b 785 -14 632 42 688 -14 b 938 125 882 -14 938 42 l 938 847 b 785 986 938 931 882 986 z "},"Ш":{"ha":1528,"x_min":null,"x_max":null,"o":"m 1285 0 b 1438 139 1382 0 1438 56 l 1438 847 b 1285 986 1438 931 1382 986 b 1132 847 1188 986 1132 931 l 1132 278 l 917 278 l 917 847 b 764 986 917 931 861 986 b 611 847 667 986 611 931 l 611 278 l 396 278 l 396 847 b 243 986 396 931 340 986 b 90 847 146 986 90 931 l 90 139 b 243 0 90 56 146 0 z "},"Щ":{"ha":1597,"x_min":null,"x_max":null,"o":"m 917 278 l 917 847 b 764 986 917 931 861 986 b 611 847 667 986 611 931 l 611 278 l 396 278 l 396 847 b 243 986 396 931 340 986 b 90 847 146 986 90 931 l 90 139 b 243 0 90 56 146 0 l 1271 0 l 1271 -69 b 1424 -208 1271 -153 1326 -208 b 1576 -69 1521 -208 1576 -153 l 1576 153 b 1451 278 1576 236 1535 278 l 1438 278 l 1438 847 b 1285 986 1438 931 1382 986 b 1132 847 1188 986 1132 931 l 1132 278 z "},"Ъ":{"ha":1111,"x_min":null,"x_max":null,"o":"m 528 681 b 528 833 526 824 528 828 b 375 972 528 917 472 972 l 139 972 b -14 833 42 972 -14 917 b 139 694 -14 750 42 694 l 222 694 l 222 139 b 375 0 222 56 278 0 l 653 0 b 1083 340 931 0 1083 153 b 653 681 1083 528 931 681 z m 653 431 b 764 340 722 431 764 389 b 653 250 764 292 722 250 l 528 250 l 528 431 z "},"Ю":{"ha":1444,"x_min":null,"x_max":null,"o":"m 396 847 b 243 986 396 931 340 986 b 90 847 146 986 90 931 l 90 125 b 243 -14 90 42 146 -14 b 396 125 340 -14 396 42 l 396 347 l 514 347 b 951 -28 526 125 692 -28 b 1389 375 1222 -28 1389 139 l 1389 597 b 951 1000 1389 833 1222 1000 b 514 611 686 1000 519 839 l 396 611 z m 826 597 b 951 764 826 708 882 764 b 1076 597 1021 764 1076 708 l 1076 375 b 951 208 1076 264 1021 208 b 826 375 882 208 826 264 z "},"Ь":{"ha":979,"x_min":null,"x_max":null,"o":"m 521 431 b 632 340 590 431 632 389 b 521 250 632 292 590 250 l 396 250 l 396 431 z m 396 681 l 396 847 b 243 986 396 931 340 986 b 90 847 146 986 90 931 l 90 139 b 243 0 90 56 146 0 l 521 0 b 951 340 799 0 951 153 b 521 681 951 528 799 681 z "},"Ы":{"ha":1424,"x_min":null,"x_max":null,"o":"m 507 431 b 618 340 576 431 618 389 b 507 250 618 292 576 250 l 396 250 l 396 431 z m 396 681 l 396 847 b 243 986 396 931 340 986 b 90 847 146 986 90 931 l 90 139 b 243 0 90 56 146 0 l 507 0 b 938 340 785 0 938 153 b 507 681 938 528 785 681 z m 1333 847 b 1181 986 1333 931 1278 986 b 1028 847 1083 986 1028 931 l 1028 125 b 1181 -14 1028 42 1083 -14 b 1333 125 1278 -14 1333 42 z "},"Э":{"ha":938,"x_min":null,"x_max":null,"o":"m 882 583 b 417 1000 882 819 701 1000 b 35 764 174 1000 35 861 b 188 639 35 688 83 639 b 417 736 299 639 313 736 b 569 618 514 736 556 694 l 410 618 b 271 493 319 618 271 569 b 410 368 271 417 319 368 l 576 368 b 417 236 569 292 514 236 b 174 333 299 236 285 333 b 21 208 69 333 21 285 b 417 -28 21 111 160 -28 b 882 389 701 -28 882 153 z "},"Я":{"ha":1007,"x_min":null,"x_max":null,"o":"m 479 972 b 63 660 215 972 63 819 b 222 431 63 486 222 431 l 222 417 l 76 250 b 21 125 76 250 21 188 b 174 -14 21 42 76 -14 b 306 56 250 -14 306 56 l 542 347 l 611 347 l 611 124 b 764 -14 611 42 667 -14 b 917 125 861 -14 917 42 l 917 833 b 764 972 917 917 861 972 b 479 972 764 972 540 972 z m 479 583 b 382 660 417 583 382 618 b 479 736 382 701 417 736 b 611 736 503 736 611 736 l 611 583 z "},"&":{"ha":1056,"x_min":null,"x_max":null,"o":"m 722 83 b 903 -14 764 42 819 -14 b 1042 125 979 -14 1042 49 b 938 283 1042 194 986 250 l 938 297 b 986 389 938 297 986 347 b 847 528 986 472 931 528 b 715 458 771 528 715 458 l 667 500 l 667 514 b 826 722 667 514 826 569 b 474 1000 826 861 688 1000 b 118 722 257 1000 118 861 b 222 528 118 583 222 528 l 222 514 b 14 250 222 514 14 444 b 375 -28 14 111 153 -28 b 708 83 625 -28 708 83 z m 333 278 b 396 354 333 333 396 354 b 500 264 396 354 500 264 b 417 222 500 264 472 222 b 333 278 361 222 333 250 z m 472 764 b 535 708 507 764 535 736 b 472 639 535 667 472 639 b 410 708 472 639 410 667 b 472 764 410 736 438 764 z "},".":{"ha":375,"x_min":null,"x_max":null,"o":"m 188 278 b 28 132 90 278 28 215 b 188 -14 28 49 90 -14 b 347 132 285 -14 347 49 b 188 278 347 215 285 278 z "},",":{"ha":354,"x_min":null,"x_max":null,"o":"m 14 132 b 132 0 14 56 69 0 b 21 -118 118 -69 21 -56 b 76 -167 21 -146 42 -167 b 326 90 208 -167 326 -49 b 174 278 326 208 257 278 b 14 132 76 278 14 215 z "},"$":{"ha":896,"x_min":null,"x_max":null,"o":"m 556 306 b 417 236 556 271 521 236 b 174 333 299 236 285 333 b 21 208 69 333 21 285 b 299 -14 21 111 118 14 b 451 -153 299 -97 354 -153 b 604 -14 549 -153 604 -97 l 604 -7 b 875 306 764 28 875 139 b 361 681 875 625 361 583 b 458 736 361 708 389 736 b 688 639 563 736 576 639 b 840 764 792 639 840 688 b 604 986 840 847 729 958 b 451 1125 604 1069 549 1125 b 299 986 354 1125 299 1069 l 299 979 b 42 681 153 944 42 833 b 556 306 42 347 556 389 z "},"§":{"ha":771,"x_min":null,"x_max":null,"o":"m 42 431 b 438 118 42 181 438 181 b 347 76 438 97 417 76 b 153 139 264 76 250 139 b 28 35 69 139 28 97 b 347 -139 28 -35 132 -139 b 729 104 604 -139 729 -14 b 618 278 729 208 618 276 l 618 292 b 729 431 618 292 729 347 b 347 750 729 681 347 681 b 410 785 347 764 368 785 b 590 722 479 785 493 722 b 715 826 674 722 715 764 b 410 1000 715 896 611 1000 b 56 764 181 1000 56 875 b 153 611 56 653 153 613 l 153 597 b 42 431 153 597 42 542 z m 319 444 b 333 481 319 465 333 481 b 444 417 333 481 444 465 b 417 382 444 396 417 382 b 319 444 417 382 319 396 z "},"<":{"ha":819,"x_min":null,"x_max":null,"o":"m 28 361 b 194 160 28 257 83 201 l 528 35 b 660 0 528 35 611 0 b 792 118 743 0 792 49 b 653 264 792 194 750 235 l 375 354 l 375 368 l 653 458 b 792 604 750 485 792 521 b 660 722 792 674 736 722 b 528 688 611 722 528 688 l 194 563 b 28 361 90 528 28 465 z "},">":{"ha":819,"x_min":null,"x_max":null,"o":"m 792 361 b 625 563 792 465 729 528 l 292 688 b 160 722 292 688 208 722 b 28 604 83 722 28 674 b 167 458 28 521 69 485 l 444 368 l 444 354 l 167 264 b 28 118 69 235 28 194 b 160 0 28 49 76 0 b 292 35 208 0 292 35 l 625 160 b 792 361 736 201 792 257 z "},"!":{"ha":431,"x_min":null,"x_max":null,"o":"m 215 278 b 56 132 118 278 56 215 b 215 -14 56 49 118 -14 b 375 132 313 -14 375 49 b 215 278 375 215 313 278 z m 215 1000 b 49 847 118 1000 49 931 l 76 472 b 215 333 83 382 132 333 b 354 472 299 333 347 382 l 382 847 b 215 1000 382 931 313 1000 z "},"?":{"ha":819,"x_min":null,"x_max":null,"o":"m 257 472 b 396 333 239 390 299 333 b 563 444 479 333 535 389 b 792 708 604 528 792 528 b 382 1000 792 861 653 1000 b 14 764 139 1000 14 875 b 167 639 14 688 63 639 b 382 736 278 639 292 736 b 465 681 438 736 465 708 b 257 472 465 625 285 597 z m 389 278 b 229 132 292 278 229 215 b 389 -14 229 49 292 -14 b 549 132 486 -14 549 49 b 389 278 549 215 486 278 z "},"(":{"ha":604,"x_min":null,"x_max":null,"o":"m 368 396 b 604 972 368 764 604 847 b 479 1097 604 1042 549 1097 b 49 396 313 1097 49 833 b 479 -306 49 -42 313 -306 b 604 -181 549 -306 604 -250 b 368 396 604 -56 368 28 z "},"[":{"ha":632,"x_min":null,"x_max":null,"o":"m 396 806 l 479 806 b 632 944 576 806 632 861 b 479 1083 632 1028 576 1083 l 243 1083 b 90 944 146 1083 90 1028 b 90 -153 90 944 90 146 b 243 -292 90 -236 146 -292 l 479 -292 b 632 -153 576 -292 632 -236 b 479 -14 632 -69 576 -14 l 396 -14 z "},"]":{"ha":632,"x_min":null,"x_max":null,"o":"m 236 -14 l 153 -14 b 0 -153 56 -14 0 -69 b 153 -292 0 -236 56 -292 l 389 -292 b 542 -153 486 -292 542 -236 b 542 958 542 -153 542 660 b 389 1097 542 1042 486 1097 l 153 1097 b 0 958 56 1097 0 1042 b 153 819 0 875 56 819 l 236 819 z "},")":{"ha":604,"x_min":null,"x_max":null,"o":"m 236 396 b 0 -181 236 28 0 -56 b 125 -306 0 -250 56 -306 b 556 396 292 -306 556 -42 b 125 1097 556 833 292 1097 b 0 972 56 1097 0 1042 b 236 396 0 847 236 764 z "},"'":{"ha":319,"x_min":null,"x_max":null,"o":"m 160 556 b 257 632 215 556 250 590 l 292 861 b 160 986 292 931 236 986 b 28 861 83 986 28 931 l 63 632 b 160 556 69 590 104 556 z "},"|":{"ha":514,"x_min":null,"x_max":null,"o":"m 410 917 b 257 1056 410 1000 354 1056 b 104 917 160 1056 104 1000 l 104 -125 b 257 -264 104 -208 160 -264 b 410 -125 354 -264 410 -208 z "},"*":{"ha":628,"x_min":null,"x_max":null,"o":"m 317 549 b 369 438 317 549 350 465 b 508 410 397 396 453 381 b 536 549 557 436 571 500 b 425 639 501 597 425 639 l 425 646 b 564 646 425 646 529 631 b 619 778 613 667 640 722 b 501 840 599 833 543 853 b 390 771 453 826 390 771 l 383 778 b 418 903 383 779 418 847 b 314 1000 418 958 376 1000 b 210 903 251 1000 210 958 b 244 778 210 847 244 779 l 238 771 b 126 840 238 771 175 826 b 8 778 85 853 29 833 b 64 646 -12 722 15 667 b 203 646 99 631 203 646 l 203 639 b 92 549 203 639 126 597 b 119 410 57 500 71 436 b 258 438 175 381 231 396 b 311 549 278 467 311 549 z "},"+":{"ha":792,"x_min":null,"x_max":null,"o":"m 271 715 l 271 597 l 153 597 b 14 472 69 597 14 542 b 153 347 14 403 69 347 l 271 347 l 271 229 b 396 90 271 146 326 90 b 521 229 465 90 521 146 l 521 347 l 639 347 b 778 472 722 347 778 403 b 639 597 778 542 722 597 l 521 597 l 521 715 b 396 854 521 799 465 854 b 271 715 326 854 271 799 z "},"-":{"ha":722,"x_min":null,"x_max":null,"o":"m 569 597 l 153 597 b 14 472 69 597 14 542 b 153 347 14 403 69 347 l 569 347 b 708 472 653 347 708 403 b 569 597 708 542 653 597 z "},"–":{"ha":903,"x_min":null,"x_max":null,"o":"m 750 569 l 153 569 b 14 444 69 569 14 514 b 153 319 14 375 69 319 l 750 319 b 889 444 833 319 889 375 b 750 569 889 514 833 569 z "},"—":{"ha":1250,"x_min":null,"x_max":null,"o":"m 1097 569 l 153 569 b 14 444 69 569 14 514 b 153 319 14 375 69 319 l 1097 319 b 1236 444 1181 319 1236 375 b 1097 569 1236 514 1181 569 z "},"«":{"ha":882,"x_min":null,"x_max":null,"o":"m 42 347 b 111 208 42 285 76 250 l 215 83 b 354 7 238 56 285 7 b 465 104 424 7 465 49 b 403 222 465 153 431 188 l 306 340 l 306 354 l 403 472 b 465 590 431 507 465 542 b 354 688 465 646 424 688 b 215 611 285 688 238 639 l 111 486 b 42 347 76 444 42 410 z m 417 347 b 486 208 417 285 451 250 l 590 83 b 729 7 613 56 660 7 b 840 104 799 7 840 49 b 778 222 840 153 806 188 l 681 340 l 681 354 l 778 472 b 840 590 806 507 840 542 b 729 688 840 646 799 688 b 590 611 660 688 613 639 l 486 486 b 417 347 451 444 417 410 z "},"{":{"ha":701,"x_min":null,"x_max":null,"o":"m 354 403 b 493 597 354 403 493 444 l 493 736 b 549 806 493 778 521 806 b 701 944 646 806 701 861 b 549 1083 701 1028 646 1083 b 188 736 326 1083 188 944 l 188 597 b 125 528 188 563 160 536 b 28 396 69 514 28 472 b 125 264 28 319 69 278 b 188 194 160 256 188 229 l 188 56 b 549 -292 188 -153 326 -292 b 701 -153 646 -292 701 -236 b 549 -14 701 -69 646 -14 b 493 56 521 -14 493 14 l 493 194 b 354 389 493 347 354 389 z "},"#":{"ha":1083,"x_min":null,"x_max":null,"o":"m 132 222 l 118 181 b 104 104 118 181 104 139 b 236 -14 104 42 160 -14 b 396 118 326 -14 374 35 l 424 222 l 507 222 l 493 181 b 479 104 493 181 479 139 b 611 -14 479 42 535 -14 b 771 118 701 -14 749 35 l 799 222 l 882 222 b 993 333 944 222 993 271 b 882 444 993 396 944 444 l 861 444 l 889 528 l 972 528 b 1083 639 1035 528 1083 576 b 972 750 1083 701 1035 750 l 951 750 l 965 792 b 979 868 965 792 979 833 b 847 986 979 931 924 986 b 688 854 757 986 710 938 l 660 750 l 576 750 l 590 792 b 604 868 590 792 604 833 b 472 986 604 931 549 986 b 313 854 382 986 335 938 l 285 750 l 201 750 b 90 639 139 750 90 701 b 201 528 90 576 139 528 l 215 528 l 194 444 l 111 444 b 0 333 49 444 0 396 b 111 222 0 271 49 222 z m 493 549 l 618 549 l 583 424 l 458 424 z "},"»":{"ha":882,"x_min":null,"x_max":null,"o":"m 840 347 b 771 486 840 410 806 444 l 667 611 b 528 688 644 639 597 688 b 417 590 458 688 417 646 b 479 472 417 542 451 507 l 576 354 l 576 340 l 479 222 b 417 104 451 188 417 153 b 528 7 417 49 458 7 b 667 83 597 7 644 56 l 771 208 b 840 347 806 250 840 285 z m 465 347 b 396 486 465 410 431 444 l 292 611 b 153 688 269 639 222 688 b 42 590 83 688 42 646 b 104 472 42 542 76 507 l 201 354 l 201 340 l 104 222 b 42 104 76 188 42 153 b 153 7 42 49 83 7 b 292 83 222 7 269 56 l 396 208 b 465 347 431 250 465 285 z "},"}":{"ha":701,"x_min":null,"x_max":null,"o":"m 347 389 b 208 194 347 389 208 347 l 208 56 b 153 -14 208 14 181 -14 b 0 -153 56 -14 0 -69 b 153 -292 0 -236 56 -292 b 514 56 375 -292 514 -153 l 514 194 b 576 264 514 229 542 256 b 674 396 632 278 674 319 b 576 528 674 472 632 514 b 514 597 542 536 514 563 l 514 736 b 153 1083 514 944 375 1083 b 0 944 56 1083 0 1028 b 153 806 0 861 56 806 b 208 736 181 806 208 778 l 208 597 b 347 403 208 444 347 403 z "},"I":{"ha":486,"x_min":null,"x_max":null,"o":"m 396 847 b 243 986 396 931 340 986 b 90 847 146 986 90 931 l 90 125 b 243 -14 90 42 146 -14 b 396 125 340 -14 396 42 z "},":":{"ha":375,"x_min":null,"x_max":null,"o":"m 188 278 b 28 132 90 278 28 215 b 188 -14 28 49 90 -14 b 347 132 285 -14 347 49 b 188 278 347 215 285 278 z m 188 736 b 28 590 90 736 28 674 b 188 444 28 507 90 444 b 347 590 285 444 347 507 b 188 736 347 674 285 736 z "},";":{"ha":361,"x_min":null,"x_max":null,"o":"m 174 736 b 14 590 76 736 14 674 b 174 444 14 507 76 444 b 333 590 271 444 333 507 b 174 736 333 674 271 736 z m 14 132 b 132 0 14 56 69 0 b 21 -118 104 -69 21 -56 b 90 -181 21 -153 49 -181 b 326 90 208 -181 326 -62 b 174 278 326 208 257 278 b 14 132 76 278 14 215 z "},"\"":{"ha":639,"x_min":null,"x_max":null,"o":"m 160 556 b 257 632 215 556 250 590 l 292 861 b 160 986 292 931 236 986 b 28 861 83 986 28 931 l 63 632 b 160 556 69 590 104 556 z m 479 556 b 576 632 535 556 569 590 l 611 861 b 479 986 611 931 556 986 b 347 861 403 986 347 931 l 382 632 b 479 556 389 590 424 556 z "},"/":{"ha":778,"x_min":null,"x_max":null,"o":"m 736 826 b 764 917 736 826 764 875 b 611 1042 764 986 708 1042 b 493 972 535 1042 493 972 l 42 146 b 14 56 42 146 14 97 b 167 -69 14 -14 69 -69 b 285 0 243 -69 285 0 z "},"A":{"ha":1000,"x_min":null,"x_max":null,"o":"m 417 458 l 493 667 l 507 667 l 583 458 z m 354 208 l 646 208 l 681 125 b 847 -14 715 42 771 -14 b 1000 125 938 -14 1000 49 b 965 250 1000 167 965 250 l 743 833 b 500 1000 703 938 639 1000 b 257 833 361 1000 299 938 l 35 250 b 0 125 35 250 0 167 b 153 -14 0 49 63 -14 b 319 125 229 -14 285 42 z "},"B":{"ha":1007,"x_min":null,"x_max":null,"o":"m 396 736 l 521 736 b 604 674 576 736 604 708 b 521 611 604 639 576 611 l 396 611 z m 396 389 l 563 389 b 660 313 625 389 660 354 b 563 236 660 271 625 236 l 396 236 z m 243 972 b 90 833 146 972 92 917 l 90 139 b 243 0 90 56 146 0 l 563 0 b 979 285 854 0 979 125 b 771 514 979 472 771 514 l 771 528 b 924 715 771 528 924 569 b 521 972 924 861 813 972 z "},"И":{"ha":1083,"x_min":null,"x_max":null,"o":"m 396 528 l 396 847 b 243 986 396 931 340 986 b 90 847 146 986 90 931 l 90 125 b 243 -14 90 43 146 -14 b 438 125 326 -14 375 35 l 674 444 l 688 444 l 688 125 b 840 -14 688 42 743 -14 b 993 125 938 -14 993 42 l 993 847 b 840 986 993 929 938 986 b 646 847 757 986 708 938 l 410 528 z "},"E":{"ha":951,"x_min":null,"x_max":null,"o":"m 771 694 b 924 833 868 694 924 750 b 771 972 924 917 868 972 l 243 972 b 90 833 146 972 90 917 l 90 139 b 243 0 90 56 146 0 l 785 0 b 938 139 882 0 938 56 b 785 278 938 222 882 278 l 396 278 l 396 361 l 660 361 b 799 486 743 361 799 417 b 660 611 799 556 743 611 l 396 611 l 396 694 z "},"H":{"ha":1069,"x_min":null,"x_max":null,"o":"m 396 847 b 243 986 396 931 340 986 b 90 847 146 986 90 931 l 90 125 b 243 -14 90 42 146 -14 b 396 125 340 -14 396 42 l 396 347 l 674 347 l 674 125 b 826 -14 674 42 729 -14 b 979 125 924 -14 979 42 l 979 847 b 826 986 979 931 924 986 b 674 847 729 986 674 931 l 674 611 l 396 611 z "},"O":{"ha":1042,"x_min":null,"x_max":null,"o":"m 986 583 b 521 1000 986 819 806 1000 b 56 583 236 1000 56 819 l 56 389 b 521 -28 56 153 236 -28 b 986 389 806 -28 986 153 z m 674 389 b 521 208 674 278 604 208 b 368 389 438 208 368 278 l 368 583 b 521 764 368 694 438 764 b 674 583 604 764 674 694 z "},"P":{"ha":979,"x_min":null,"x_max":null,"o":"m 396 542 l 396 722 l 521 722 b 632 632 590 722 632 681 b 521 542 632 583 590 542 z m 521 292 b 951 632 799 292 951 444 b 521 972 951 819 799 972 l 243 972 b 90 833 146 972 90 917 l 90 125 b 243 -14 90 42 146 -14 b 396 125 340 -14 396 42 l 396 292 z "},"T":{"ha":917,"x_min":null,"x_max":null,"o":"m 306 694 l 306 125 b 458 -14 306 42 361 -14 b 611 125 556 -14 611 42 l 611 694 l 764 694 b 917 833 861 694 917 750 b 764 972 917 917 861 972 l 153 972 b 0 833 56 972 0 917 b 153 694 0 750 56 694 z "},"M":{"ha":1361,"x_min":null,"x_max":null,"o":"m 681 83 b 847 222 764 83 813 132 l 951 486 l 965 486 l 1028 125 b 1188 -14 1042 42 1097 -14 b 1333 125 1278 -14 1333 42 b 1319 250 1333 181 1319 250 l 1222 833 b 1021 1000 1207 931 1139 1000 b 813 833 917 1000 853 938 l 688 508 l 674 508 l 549 833 b 340 1000 507 938 444 1000 b 139 833 222 1000 156 931 l 42 250 b 28 125 42 250 28 181 b 174 -14 28 42 83 -14 b 333 125 264 -14 319 42 l 396 486 l 410 486 l 514 222 b 681 83 547 132 597 83 z "},"X":{"ha":931,"x_min":null,"x_max":null,"o":"m 63 250 b 7 125 63 250 7 181 b 153 -14 7 42 63 -14 b 292 56 236 -14 292 56 l 458 257 l 472 257 l 639 56 b 778 -14 639 56 694 -14 b 924 125 868 -14 924 42 b 868 250 924 181 868 250 l 660 500 l 840 722 b 896 847 840 722 896 792 b 750 986 896 931 840 986 b 611 917 667 986 611 917 l 472 736 l 458 736 l 319 917 b 181 986 319 917 264 986 b 35 847 90 986 35 931 b 90 722 35 792 90 722 l 271 500 z "},"\\":{"ha":778,"x_min":null,"x_max":null,"o":"m 493 0 b 611 -69 493 0 535 -69 b 764 56 708 -69 764 -14 b 736 146 764 97 736 146 l 285 972 b 167 1042 285 972 243 1042 b 14 917 69 1042 14 986 b 42 826 14 875 42 826 z "},"D":{"ha":1021,"x_min":null,"x_max":null,"o":"m 965 556 b 486 972 965 792 785 972 l 243 972 b 90 833 146 972 90 917 l 90 139 b 243 0 90 56 146 0 l 486 0 b 965 417 785 0 965 181 z m 486 722 b 653 556 583 722 653 653 l 653 417 b 486 250 653 319 583 250 l 396 250 l 396 722 z "},"C":{"ha":931,"x_min":null,"x_max":null,"o":"m 56 389 b 521 -28 56 153 236 -28 b 917 208 778 -28 917 111 b 764 333 917 285 868 333 b 521 236 653 333 639 236 b 368 389 431 236 368 299 l 368 583 b 521 736 368 674 431 736 b 750 639 625 736 639 639 b 903 764 854 639 903 688 b 521 1000 903 861 764 1000 b 56 583 236 1000 56 819 z "},"А":{"ha":1000,"x_min":null,"x_max":null,"o":"m 417 458 l 493 667 l 507 667 l 583 458 z m 354 208 l 646 208 l 681 125 b 847 -14 715 42 771 -14 b 1000 125 938 -14 1000 49 b 965 250 1000 167 965 250 l 743 833 b 500 1000 703 938 639 1000 b 257 833 361 1000 299 938 l 35 250 b 0 125 35 250 0 167 b 153 -14 0 49 63 -14 b 319 125 229 -14 285 42 z "},"В":{"ha":1007,"x_min":null,"x_max":null,"o":"m 396 736 l 521 736 b 604 674 576 736 604 708 b 521 611 604 639 576 611 l 396 611 z m 396 389 l 563 389 b 660 313 625 389 660 354 b 563 236 660 271 625 236 l 396 236 z m 243 972 b 90 833 146 972 92 917 l 90 139 b 243 0 90 56 146 0 l 563 0 b 979 285 854 0 979 125 b 771 514 979 472 771 514 l 771 528 b 924 715 771 528 924 569 b 521 972 924 861 813 972 z "},"Е":{"ha":951,"x_min":null,"x_max":null,"o":"m 771 694 b 924 833 868 694 924 750 b 771 972 924 917 868 972 l 243 972 b 90 833 146 972 90 917 l 90 139 b 243 0 90 56 146 0 l 785 0 b 938 139 882 0 938 56 b 785 278 938 222 882 278 l 396 278 l 396 361 l 660 361 b 799 486 743 361 799 417 b 660 611 799 556 743 611 l 396 611 l 396 694 z "},"К":{"ha":993,"x_min":null,"x_max":null,"o":"m 472 354 l 708 56 b 840 -14 708 56 764 -14 b 993 125 938 -14 993 42 b 938 250 993 181 938 250 l 701 549 l 896 736 b 951 847 896 736 951 778 b 813 986 951 931 896 986 b 701 944 743 986 701 944 l 396 653 l 396 847 b 243 986 396 931 340 986 b 90 847 146 986 90 931 l 90 125 b 243 -14 90 42 146 -14 b 396 125 340 -14 396 42 l 396 285 z "},"М":{"ha":1361,"x_min":null,"x_max":null,"o":"m 681 83 b 847 222 764 83 813 132 l 951 486 l 965 486 l 1028 125 b 1188 -14 1042 42 1097 -14 b 1333 125 1278 -14 1333 42 b 1319 250 1333 181 1319 250 l 1222 833 b 1021 1000 1207 931 1139 1000 b 813 833 917 1000 853 938 l 688 508 l 674 508 l 549 833 b 340 1000 507 938 444 1000 b 139 833 222 1000 156 931 l 42 250 b 28 125 42 250 28 181 b 174 -14 28 42 83 -14 b 333 125 264 -14 319 42 l 396 486 l 410 486 l 514 222 b 681 83 547 132 597 83 z "},"Н":{"ha":1069,"x_min":null,"x_max":null,"o":"m 396 847 b 243 986 396 931 340 986 b 90 847 146 986 90 931 l 90 125 b 243 -14 90 42 146 -14 b 396 125 340 -14 396 42 l 396 347 l 674 347 l 674 125 b 826 -14 674 42 729 -14 b 979 125 924 -14 979 42 l 979 847 b 826 986 979 931 924 986 b 674 847 729 986 674 931 l 674 611 l 396 611 z "},"О":{"ha":1042,"x_min":null,"x_max":null,"o":"m 986 583 b 521 1000 986 819 806 1000 b 56 583 236 1000 56 819 l 56 389 b 521 -28 56 153 236 -28 b 986 389 806 -28 986 153 z m 674 389 b 521 208 674 278 604 208 b 368 389 438 208 368 278 l 368 583 b 521 764 368 694 438 764 b 674 583 604 764 674 694 z "},"Р":{"ha":979,"x_min":null,"x_max":null,"o":"m 396 542 l 396 722 l 521 722 b 632 632 590 722 632 681 b 521 542 632 583 590 542 z m 521 292 b 951 632 799 292 951 444 b 521 972 951 819 799 972 l 243 972 b 90 833 146 972 90 917 l 90 125 b 243 -14 90 42 146 -14 b 396 125 340 -14 396 42 l 396 292 z "},"С":{"ha":938,"x_min":null,"x_max":null,"o":"m 56 389 b 521 -28 56 153 236 -28 b 917 208 778 -28 917 111 b 764 333 917 285 868 333 b 521 236 653 333 639 236 b 368 389 431 236 368 299 l 368 583 b 521 736 368 674 431 736 b 750 639 625 736 639 639 b 903 764 854 639 903 688 b 521 1000 903 861 764 1000 b 56 583 236 1000 56 819 z "},"Т":{"ha":917,"x_min":null,"x_max":null,"o":"m 306 694 l 306 125 b 458 -14 306 42 361 -14 b 611 125 556 -14 611 42 l 611 694 l 764 694 b 917 833 861 694 917 750 b 764 972 917 917 861 972 l 153 972 b 0 833 56 972 0 917 b 153 694 0 750 56 694 z "},"Х":{"ha":931,"x_min":null,"x_max":null,"o":"m 63 250 b 7 125 63 250 7 181 b 153 -14 7 42 63 -14 b 292 56 236 -14 292 56 l 458 257 l 472 257 l 639 56 b 778 -14 639 56 694 -14 b 924 125 868 -14 924 42 b 868 250 924 181 868 250 l 660 500 l 840 722 b 896 847 840 722 896 792 b 750 986 896 931 840 986 b 611 917 667 986 611 917 l 472 736 l 458 736 l 319 917 b 181 986 319 917 264 986 b 35 847 90 986 35 931 b 90 722 35 792 90 722 l 271 500 z "},"Б":{"ha":993,"x_min":null,"x_max":null,"o":"m 563 382 b 653 313 625 382 653 354 b 563 243 653 271 624 243 l 396 243 l 396 382 z m 396 625 l 396 708 l 750 708 b 896 840 847 708 896 757 b 750 972 896 924 847 972 b 243 972 750 972 274 972 b 90 833 146 972 90 917 l 90 139 b 243 0 90 56 146 0 l 563 0 b 972 313 833 0 972 139 b 561 625 972 486 833 625 z "},"=":{"ha":764,"x_min":null,"x_max":null,"o":"m 160 750 b 28 632 83 750 28 694 b 160 514 28 569 83 514 l 604 514 b 736 632 681 514 736 569 b 604 750 736 694 681 750 z m 160 431 b 28 313 83 431 28 375 b 160 194 28 250 83 194 l 604 194 b 736 313 681 194 736 250 b 604 431 736 375 681 431 z "},"%":{"ha":1229,"x_min":null,"x_max":null,"o":"m 972 771 b 1007 875 972 771 1007 819 b 896 986 1007 938 958 986 b 764 917 806 986 764 917 l 257 201 b 222 97 257 201 222 153 b 333 -14 222 35 271 -14 b 465 56 424 -14 465 56 z m 14 708 b 264 493 14 590 111 493 b 514 708 417 493 514 590 l 514 771 b 264 986 514 889 417 986 b 14 771 111 986 14 890 z m 306 708 b 264 667 306 688 285 667 b 222 708 243 667 222 688 l 222 771 b 264 813 222 792 243 813 b 306 771 285 813 306 792 z m 715 201 b 965 -14 715 83 813 -14 b 1215 201 1118 -14 1215 83 l 1215 264 b 965 479 1215 382 1118 479 b 715 264 813 479 715 383 z m 1007 201 b 965 160 1007 181 986 160 b 924 201 944 160 924 181 l 924 264 b 965 306 924 285 944 306 b 1007 264 986 306 1007 285 z "},"_":{"ha":694,"x_min":null,"x_max":null,"o":"m 556 -56 l 139 -56 b 0 -181 56 -56 0 -111 b 139 -306 0 -250 56 -306 l 556 -306 b 694 -181 639 -306 694 -250 b 556 -56 694 -111 639 -56 z "},"„":{"ha":701,"x_min":null,"x_max":null,"o":"m 14 132 b 132 0 14 56 69 0 b 21 -118 118 -69 21 -56 b 76 -167 21 -146 42 -167 b 326 90 208 -167 326 -49 b 174 278 326 208 257 278 b 14 132 76 278 14 215 z m 361 132 b 479 0 361 56 417 0 b 368 -118 465 -69 368 -56 b 424 -167 368 -146 389 -167 b 674 90 556 -167 674 -49 b 521 278 674 208 604 278 b 361 132 424 278 361 215 z "},"^":{"ha":764,"x_min":null,"x_max":null,"o":"m 375 701 l 389 701 l 493 583 b 625 514 528 542 556 514 b 736 632 681 514 736 569 b 681 750 736 688 708 721 l 542 903 b 382 986 501 947 458 986 b 222 903 306 986 263 947 l 83 750 b 28 632 56 721 28 688 b 139 514 28 569 83 514 b 271 583 208 514 235 542 z "},"@":{"ha":1389,"x_min":null,"x_max":null,"o":"m 826 208 b 1014 139 826 208 882 139 b 1347 458 1208 139 1347 278 b 694 1028 1347 750 1069 1028 b 42 414 319 1028 42 750 b 694 -194 42 83 319 -194 b 986 -144 861 -194 986 -144 b 1063 -35 1028 -132 1063 -97 b 965 56 1063 21 1028 56 b 694 14 903 56 861 14 b 292 417 472 14 292 194 b 694 819 292 639 472 819 b 1097 457 931 819 1097 653 b 1000 299 1097 340 1056 299 b 972 306 986 299 972 306 l 972 583 b 868 681 972 639 931 681 b 785 639 806 681 785 639 l 778 639 b 653 681 778 639 736 681 b 417 451 514 681 417 583 l 417 368 b 653 139 417 236 514 139 b 819 208 764 139 819 208 z m 764 368 b 694 306 764 333 736 306 b 625 368 653 306 625 333 l 625 451 b 694 514 625 486 653 514 b 764 451 736 514 764 486 z "},"`":{"ha":354,"x_min":null,"x_max":null,"o":"m 236 625 b 326 708 292 625 326 660 b 313 778 326 743 313 778 l 278 882 b 139 986 257 944 215 986 b 28 882 69 986 28 944 b 49 806 28 840 49 806 l 111 703 b 236 625 133 667 174 625 z "},"“":{"ha":701,"x_min":null,"x_max":null,"o":"m 688 689 b 569 821 688 765 632 821 b 681 939 583 890 681 876 b 625 988 681 967 660 988 b 375 731 493 988 375 869 b 528 543 375 613 444 543 b 688 689 625 543 688 606 z m 340 689 b 222 821 340 765 285 821 b 333 939 236 890 333 876 b 278 988 333 967 313 988 b 28 731 146 988 28 869 b 181 543 28 613 97 543 b 340 689 278 543 340 606 z "},"”":{"ha":701,"x_min":null,"x_max":null,"o":"m 14 842 b 132 710 14 765 69 710 b 21 592 118 640 21 654 b 76 543 21 564 42 543 b 326 800 208 543 326 661 b 174 988 326 918 257 988 b 14 842 76 988 14 925 z m 361 842 b 479 710 361 765 417 710 b 368 592 465 640 368 654 b 424 543 368 564 389 543 b 674 800 556 543 674 661 b 521 988 674 918 604 988 b 361 842 424 988 361 925 z "},"•":{"ha":611,"x_min":null,"x_max":null,"o":"m 306 257 b 507 444 417 257 507 347 b 306 632 507 542 417 632 b 104 444 194 632 104 542 b 306 257 104 347 194 257 z "},"Ѓ":{"ha":868,"x_min":null,"x_max":null,"o":"m 243 972 b 90 833 146 972 90 917 l 90 125 b 243 -14 90 42 146 -14 b 396 125 340 -14 396 42 l 396 694 l 715 694 b 868 833 813 694 868 750 b 715 972 868 917 813 972 z m 472 1069 b 597 1153 535 1069 569 1104 l 653 1250 b 674 1319 653 1250 674 1278 b 563 1417 674 1368 625 1417 b 410 1306 472 1417 424 1368 l 389 1208 b 382 1153 389 1208 382 1181 b 472 1069 382 1104 417 1069 z "},"Љ":{"ha":1479,"x_min":null,"x_max":null,"o":"m 938 681 l 938 833 b 785 972 938 917 882 972 l 333 972 b 181 833 236 972 181 917 l 181 500 b -14 111 181 181 -14 250 b 125 -28 -14 28 42 -28 b 486 500 306 -28 486 153 l 486 694 l 632 694 l 632 139 b 785 0 632 56 694 0 l 1021 0 b 1451 340 1299 0 1451 153 b 1021 681 1451 528 1299 681 z m 1021 431 b 1132 340 1090 431 1132 389 b 1021 250 1132 292 1090 250 l 938 250 l 938 431 z "},"~":{"ha":792,"x_min":null,"x_max":null,"o":"m 542 306 b 778 515 681 306 778 403 b 653 639 778 590 729 639 b 486 556 556 639 556 556 b 250 639 431 556 375 639 b 14 429 111 639 14 542 b 139 306 14 354 63 306 b 306 389 236 306 236 389 b 542 306 361 389 417 306 z "},"€":{"ha":958,"x_min":null,"x_max":null,"o":"m 118 472 l 111 472 b 14 375 56 472 14 431 b 111 285 14 326 56 285 l 132 285 b 556 -28 153 125 306 -28 b 944 194 813 -28 944 104 b 799 313 944 264 896 313 b 556 222 688 313 674 222 b 451 285 472 222 451 285 l 583 285 b 681 375 639 285 681 326 b 583 472 681 431 639 472 l 431 472 l 431 500 l 583 500 b 681 597 639 500 681 542 b 583 688 681 646 639 688 l 451 688 b 549 750 451 688 472 750 b 785 660 660 750 674 660 b 931 778 882 660 931 708 b 549 1000 931 868 799 1000 b 132 688 306 1000 153 847 l 111 688 b 14 597 56 688 14 646 b 111 500 14 542 56 500 l 118 500 z "},"‰":{"ha":1757,"x_min":null,"x_max":null,"o":"m 972 771 b 1007 875 972 771 1007 819 b 896 986 1007 938 958 986 b 764 917 806 986 764 917 l 257 201 b 222 97 257 201 222 153 b 333 -14 222 35 271 -14 b 465 56 424 -14 465 56 z m 14 708 b 264 493 14 590 111 493 b 514 708 417 493 514 590 l 514 771 b 264 986 514 889 417 986 b 14 771 111 986 14 890 z m 306 708 b 264 667 306 688 285 667 b 222 708 243 667 222 688 l 222 771 b 264 813 222 792 243 813 b 306 771 285 813 306 792 z m 701 201 b 951 -14 701 83 799 -14 b 1201 201 1104 -14 1201 83 l 1201 264 b 951 479 1201 382 1104 479 b 701 264 799 479 701 383 z m 993 201 b 951 160 993 181 972 160 b 910 201 931 160 910 181 l 910 264 b 951 306 910 285 931 306 b 993 264 972 306 993 285 z m 1243 201 b 1493 -14 1243 83 1340 -14 b 1743 201 1646 -14 1743 83 l 1743 264 b 1493 479 1743 382 1646 479 b 1243 264 1340 479 1243 383 z m 1535 201 b 1493 160 1535 181 1514 160 b 1451 201 1472 160 1451 181 l 1451 264 b 1493 306 1451 285 1472 306 b 1535 264 1514 306 1535 285 z "},"¤":{"ha":944,"x_min":null,"x_max":null,"o":"m 403 597 l 403 736 l 500 736 b 597 667 563 736 597 701 b 500 597 597 632 563 597 z m 97 125 b 250 -14 97 42 153 -14 b 403 125 347 -14 403 42 l 403 146 l 667 146 b 778 250 729 146 778 194 b 667 354 778 306 729 354 l 403 354 l 403 389 l 500 389 b 917 667 778 389 917 528 b 500 972 917 833 778 972 l 250 972 b 97 833 153 972 97 917 l 97 597 b 14 493 56 583 14 542 b 97 389 14 444 60 403 l 97 354 b 14 250 56 340 14 299 b 97 146 14 201 56 160 z "},"Є":{"ha":931,"x_min":null,"x_max":null,"o":"m 56 389 b 521 -28 56 153 236 -28 b 917 208 778 -28 917 111 b 764 333 917 285 868 333 b 521 236 653 333 639 236 b 361 368 424 236 368 292 l 528 368 b 667 493 618 368 667 417 b 528 618 667 569 618 618 l 368 618 b 521 736 382 694 424 736 b 750 639 625 736 639 639 b 903 764 854 639 903 688 b 521 1000 903 861 764 1000 b 56 583 236 1000 56 819 z "},"‚":{"ha":354,"x_min":null,"x_max":null,"o":"m 14 132 b 132 0 14 56 69 0 b 21 -118 118 -69 21 -56 b 76 -167 21 -146 42 -167 b 326 90 208 -167 326 -49 b 174 278 326 208 257 278 b 14 132 76 278 14 215 z "},"†":{"ha":861,"x_min":null,"x_max":null,"o":"m 694 750 l 576 750 l 576 917 b 424 1056 576 1000 521 1056 b 271 917 326 1056 271 1000 l 271 750 l 167 750 b 28 625 83 750 28 694 b 167 500 28 556 83 500 l 271 500 l 271 56 b 424 -83 271 -28 326 -83 b 576 56 521 -83 576 -28 l 576 500 l 694 500 b 833 625 778 500 833 556 b 694 750 833 694 778 750 z "},"Њ":{"ha":1479,"x_min":null,"x_max":null,"o":"m 938 653 l 938 847 b 785 986 938 931 882 986 b 632 847 688 986 632 931 l 632 639 l 396 639 l 396 847 b 243 986 396 931 340 986 b 90 847 146 986 90 931 l 90 125 b 243 -14 90 42 146 -14 b 396 125 340 -14 396 42 l 396 375 l 632 375 l 632 139 b 785 0 632 56 694 0 l 1035 0 b 1451 326 1299 0 1451 153 b 1035 653 1451 500 1299 653 z m 1035 403 b 1132 326 1097 403 1132 368 b 1035 250 1132 285 1097 250 l 938 250 l 938 403 z "},"‡":{"ha":889,"x_min":null,"x_max":null,"o":"m 590 917 b 438 1056 590 1000 535 1056 b 285 917 340 1056 285 1000 l 285 806 l 181 806 b 42 681 97 806 42 750 b 181 556 42 611 97 556 l 285 556 l 285 417 l 181 417 b 42 292 97 417 42 361 b 181 167 42 222 97 167 l 285 167 l 285 56 b 438 -83 285 -28 340 -83 b 590 56 535 -83 590 -28 l 590 167 l 708 167 b 847 292 792 167 847 222 b 708 417 847 361 792 417 l 590 417 l 590 556 l 708 556 b 847 681 792 556 847 611 b 708 806 847 750 792 806 l 590 806 z "},"™":{"ha":1306,"x_min":null,"x_max":null,"o":"m 97 972 b 0 882 42 972 0 931 b 97 792 0 833 42 792 l 167 792 l 167 563 b 271 472 167 514 208 472 b 375 563 333 472 375 514 l 375 792 l 444 792 b 542 882 500 792 542 833 b 444 972 542 931 500 972 z m 899 764 l 854 882 b 722 979 831 944 799 979 b 597 882 646 979 611 943 l 543 632 b 535 563 543 632 535 597 b 632 472 535 514 576 472 b 736 563 688 472 724 507 l 764 688 l 771 688 l 811 583 b 903 528 822 556 847 528 b 994 583 958 528 983 556 l 1035 688 l 1042 688 l 1069 563 b 1174 472 1082 507 1118 472 b 1271 563 1229 472 1271 514 b 1263 632 1271 597 1263 632 l 1208 882 b 1083 979 1194 943 1160 979 b 951 882 1007 979 975 944 l 907 764 z "},"Ґ":{"ha":868,"x_min":null,"x_max":null,"o":"m 243 972 b 90 833 146 972 90 917 l 90 125 b 243 -14 90 42 146 -14 b 396 125 340 -14 396 42 l 396 694 l 715 694 b 868 833 813 694 868 750 l 868 986 b 715 1125 868 1069 813 1125 b 563 986 618 1125 563 1069 l 563 972 z "},"¦":{"ha":514,"x_min":null,"x_max":null,"o":"m 410 917 b 257 1056 410 1000 354 1056 b 104 917 160 1056 104 1000 l 104 597 b 257 458 104 514 160 458 b 410 597 354 458 410 514 z m 410 194 b 257 333 410 278 354 333 b 104 194 160 333 104 278 l 104 -125 b 257 -264 104 -208 160 -264 b 410 -125 354 -264 410 -208 z "},"№":{"ha":1611,"x_min":null,"x_max":null,"o":"m 1431 208 b 1556 319 1507 208 1556 257 b 1431 431 1556 382 1507 431 l 1208 431 b 1083 319 1132 431 1083 382 b 1208 208 1083 257 1132 208 z m 410 444 l 646 125 b 840 -14 708 35 757 -14 b 993 125 938 -14 993 43 l 993 847 b 840 986 993 931 938 986 b 688 847 743 986 688 931 l 688 528 l 674 528 l 438 847 b 243 986 375 938 326 986 b 90 847 146 986 90 929 l 90 125 b 243 -14 90 42 146 -14 b 396 125 340 -14 396 42 l 396 444 z m 1069 708 b 1319 493 1069 590 1167 493 b 1569 708 1472 493 1569 590 l 1569 771 b 1319 986 1569 889 1472 986 b 1069 771 1167 986 1069 890 z m 1361 708 b 1319 667 1361 688 1340 667 b 1278 708 1299 667 1278 688 l 1278 771 b 1319 813 1278 792 1299 813 b 1361 771 1340 813 1361 792 z "},"‹":{"ha":604,"x_min":null,"x_max":null,"o":"m 42 361 b 132 201 42 285 82 240 l 285 76 b 444 7 319 49 361 7 b 563 111 514 7 563 56 b 486 243 563 174 521 215 l 347 354 l 347 368 l 486 479 b 563 611 521 507 563 549 b 444 715 563 667 514 715 b 285 646 361 715 319 674 l 132 521 b 42 361 82 482 42 438 z "},"›":{"ha":604,"x_min":null,"x_max":null,"o":"m 563 361 b 472 521 563 438 522 482 l 319 646 b 160 715 285 674 243 715 b 42 611 90 715 42 667 b 118 479 42 549 83 507 l 257 368 l 257 354 l 118 243 b 42 111 83 215 42 174 b 160 7 42 56 90 7 b 319 76 243 7 285 49 l 472 201 b 563 361 522 240 563 285 z "},"±":{"ha":819,"x_min":null,"x_max":null,"o":"m 653 283 l 535 283 l 535 403 l 653 403 b 792 528 736 403 792 458 b 653 653 792 597 736 653 l 535 653 l 535 771 b 410 910 535 854 479 910 b 285 771 340 910 285 854 l 285 653 l 167 653 b 28 528 83 653 28 597 b 167 403 28 458 83 403 l 285 403 l 285 283 l 167 283 b 28 158 83 283 28 228 b 167 33 28 89 83 33 l 653 33 b 792 158 736 33 792 89 b 653 283 792 228 736 283 z "},"©":{"ha":1389,"x_min":null,"x_max":null,"o":"m 444 368 b 715 139 444 243 549 139 b 938 278 861 139 938 215 b 847 361 938 326 903 361 b 715 313 771 361 771 313 b 653 368 681 313 653 340 l 653 451 b 715 507 653 479 681 507 b 840 458 771 507 771 458 b 931 542 896 458 931 493 b 715 681 931 604 854 681 b 444 451 549 681 444 576 z m 1097 417 b 694 14 1097 194 917 14 b 292 417 472 14 292 194 b 694 819 292 639 472 819 b 1097 417 917 819 1097 639 z m 1347 417 b 694 1028 1347 750 1069 1028 b 42 417 319 1028 42 750 b 694 -194 42 83 319 -194 b 1347 417 1069 -194 1347 83 z "},"®":{"ha":1389,"x_min":null,"x_max":null,"o":"m 681 333 l 778 194 b 882 146 792 174 819 146 b 972 222 938 146 972 181 b 944 285 972 250 944 285 l 882 375 l 882 382 b 958 500 882 382 958 410 b 715 667 958 583 875 667 l 542 667 b 458 590 493 667 458 632 l 458 236 b 556 146 458 188 500 146 b 653 236 611 146 653 188 l 653 333 z m 653 472 l 653 528 l 715 528 b 750 500 736 528 750 514 b 715 472 750 486 736 472 z m 1097 417 b 694 14 1097 194 917 14 b 292 417 472 14 292 194 b 694 819 292 639 472 819 b 1097 417 917 819 1097 639 z m 1347 417 b 694 1028 1347 750 1069 1028 b 42 417 319 1028 42 750 b 694 -194 42 83 319 -194 b 1347 417 1069 -194 1347 83 z "},"·":{"ha":389,"x_min":null,"x_max":null,"o":"m 194 632 b 35 486 97 632 35 569 b 194 340 35 403 97 340 b 354 486 292 340 354 403 b 194 632 354 569 292 632 z "},"°":{"ha":583,"x_min":null,"x_max":null,"o":"m 368 750 b 292 667 368 701 333 667 b 215 750 250 667 215 701 b 292 833 215 799 250 833 b 368 750 333 833 368 799 z m 556 750 b 292 986 556 882 451 986 b 28 750 132 986 28 882 b 292 514 28 618 132 514 b 556 750 451 514 556 618 z "},"¶":{"ha":986,"x_min":null,"x_max":null,"o":"m 861 736 b 972 854 922 743 972 792 b 861 972 972 917 917 972 l 292 972 b 14 708 132 972 14 854 b 292 444 14 563 132 444 l 292 -194 b 417 -306 292 -257 340 -306 b 542 -194 493 -306 542 -257 l 542 736 l 611 736 l 611 -194 b 736 -306 611 -257 660 -306 b 861 -194 813 -306 861 -257 z "},"Ў":{"ha":924,"x_min":null,"x_max":null,"o":"m 458 1222 b 264 1306 354 1222 368 1306 b 167 1208 208 1306 167 1264 b 458 1000 167 1111 278 1000 b 750 1208 639 1000 750 1111 b 653 1306 750 1264 708 1306 b 458 1222 549 1306 563 1222 z m 306 264 b 264 236 306 264 292 236 b 167 264 236 236 222 264 b 42 139 97 264 42 208 b 264 -28 42 49 118 -28 b 667 264 458 -28 594 111 l 889 722 b 924 847 889 722 924 778 b 771 986 924 924 861 986 b 604 847 694 986 642 931 l 486 556 l 472 556 l 319 847 b 153 986 278 931 229 986 b 0 847 63 986 0 924 b 35 722 0 778 35 722 z "},"Ј":{"ha":646,"x_min":null,"x_max":null,"o":"m 250 417 b -28 111 250 181 -28 292 b 125 -28 -28 28 28 -28 b 556 417 375 -28 556 153 l 556 847 b 403 986 556 931 500 986 b 250 847 306 986 250 931 z "},"‘":{"ha":354,"x_min":null,"x_max":null,"o":"m 340 689 b 222 821 340 765 285 821 b 333 939 236 890 333 876 b 278 988 333 967 313 988 b 28 731 146 988 28 869 b 181 543 28 613 97 543 b 340 689 278 543 340 606 z "},"’":{"ha":354,"x_min":null,"x_max":null,"o":"m 14 842 b 132 710 14 765 69 710 b 21 592 118 640 21 654 b 76 543 21 564 42 543 b 326 800 208 543 326 661 b 174 988 326 918 257 988 b 14 842 76 988 14 925 z "},"…":{"ha":1236,"x_min":null,"x_max":null,"o":"m 188 278 b 28 132 90 278 28 215 b 188 -14 28 49 90 -14 b 347 132 285 -14 347 49 b 188 278 347 215 285 278 z m 618 278 b 458 132 521 278 458 215 b 618 -14 458 49 521 -14 b 778 132 715 -14 778 49 b 618 278 778 215 715 278 z m 1049 278 b 889 132 951 278 889 215 b 1049 -14 889 49 951 -14 b 1208 132 1146 -14 1208 49 b 1049 278 1208 215 1146 278 z "},"Ќ":{"ha":993,"x_min":null,"x_max":null,"o":"m 500 1028 b 625 1111 563 1028 597 1063 l 681 1208 b 701 1278 681 1208 701 1236 b 590 1375 701 1326 653 1375 b 438 1264 500 1375 451 1326 l 417 1167 b 410 1111 417 1167 410 1139 b 500 1028 410 1063 444 1028 z m 472 354 l 708 56 b 840 -14 708 56 764 -14 b 993 125 938 -14 993 42 b 938 250 993 181 938 250 l 701 549 l 896 736 b 951 847 896 736 951 778 b 813 986 951 931 896 986 b 701 944 743 986 701 944 l 396 653 l 396 847 b 243 986 396 931 340 986 b 90 847 146 986 90 931 l 90 125 b 243 -14 90 42 146 -14 b 396 125 340 -14 396 42 l 396 285 z "},"І":{"ha":486,"x_min":null,"x_max":null,"o":"m 396 847 b 243 986 396 931 340 986 b 90 847 146 986 90 931 l 90 125 b 243 -14 90 42 146 -14 b 396 125 340 -14 396 42 z "},"Ѕ":{"ha":896,"x_min":null,"x_max":null,"o":"m 556 306 b 417 236 556 271 521 236 b 174 333 299 236 285 333 b 21 208 69 333 21 285 b 417 -28 21 111 160 -28 b 875 306 722 -28 875 125 b 361 681 875 625 361 583 b 458 736 361 708 389 736 b 688 639 563 736 576 639 b 840 764 792 639 840 688 b 458 1000 840 861 701 1000 b 42 681 181 1000 42 861 b 556 306 42 347 556 389 z "},"¬":{"ha":792,"x_min":null,"x_max":null,"o":"m 14 528 b 153 403 14 458 69 403 l 486 403 l 486 326 b 625 201 486 257 542 201 b 764 326 708 201 764 257 l 764 528 b 625 653 764 596 708 653 l 153 653 b 14 528 69 653 14 597 z "},"­":{"ha":722,"x_min":null,"x_max":null,"o":"m 569 597 l 153 597 b 14 472 69 597 14 542 b 153 347 14 403 69 347 l 569 347 b 708 472 653 347 708 403 b 569 597 708 542 653 597 z "},"Џ":{"ha":1069,"x_min":null,"x_max":null,"o":"m 382 0 l 382 -69 b 535 -208 382 -153 438 -208 b 688 -69 632 -208 688 -153 l 688 0 l 826 0 b 979 139 924 0 979 56 l 979 847 b 826 986 979 931 924 986 b 674 847 729 986 674 931 l 674 278 l 396 278 l 396 847 b 243 986 396 931 340 986 b 90 847 146 986 90 931 l 90 139 b 243 0 90 56 146 0 z "},"Ћ":{"ha":1111,"x_min":null,"x_max":null,"o":"m 514 347 b 646 375 514 347 569 375 b 764 250 715 375 764 326 l 764 125 b 917 -14 764 42 819 -14 b 1069 125 1013 -14 1069 42 l 1069 250 b 701 625 1069 472 917 625 b 514 597 583 625 514 597 l 514 694 l 625 694 b 778 833 722 694 778 750 b 625 972 778 917 722 972 l 125 972 b -28 833 28 972 -28 917 b 125 694 -28 750 28 694 l 208 694 l 208 125 b 361 -14 208 42 264 -14 b 514 125 458 -14 514 42 z "},"Ђ":{"ha":1097,"x_min":null,"x_max":null,"o":"m 764 264 b 632 56 764 125 632 167 b 743 -56 632 -7 681 -56 b 1069 264 931 -56 1069 83 b 701 625 1069 472 917 625 b 514 597 583 625 514 597 l 514 694 l 625 694 b 778 833 722 694 778 750 b 625 972 778 917 722 972 l 125 972 b -28 833 28 972 -28 917 b 125 694 -28 750 28 694 l 208 694 l 208 125 b 361 -14 208 42 264 -14 b 514 125 458 -14 514 42 l 514 347 b 646 375 514 347 569 375 b 764 264 715 375 764 333 z "},"Ї":{"ha":528,"x_min":null,"x_max":null,"o":"m 97 1069 b 236 1194 181 1069 236 1125 b 97 1319 236 1264 181 1319 b -42 1194 14 1319 -42 1264 b 97 1069 -42 1125 14 1069 z m 431 1069 b 569 1194 514 1069 569 1125 b 431 1319 569 1264 514 1319 b 292 1194 347 1319 292 1264 b 431 1069 292 1125 347 1069 z m 417 847 b 264 986 417 931 361 986 b 111 847 167 986 111 931 l 111 125 b 264 -14 111 42 167 -14 b 417 125 361 -14 417 42 z "},"µ":{"ha":861,"x_min":null,"x_max":null,"o":"m 431 0 b 514 42 486 0 511 38 l 528 42 b 653 -7 528 42 556 -7 b 792 118 736 -7 792 49 l 792 604 b 653 729 792 674 736 729 b 514 604 569 729 514 674 l 514 313 b 431 215 514 250 472 215 b 347 313 389 215 347 250 l 347 604 b 208 729 347 674 292 729 b 69 604 125 729 69 674 l 69 -181 b 208 -306 69 -250 125 -306 b 347 -181 292 -306 347 -250 l 347 29 l 361 29 b 431 0 361 29 389 0 z "},"G":{"ha":986,"x_min":null,"x_max":null,"o":"m 56 389 b 521 -28 56 153 236 -28 b 931 208 778 -28 931 111 l 931 458 b 806 583 931 542 889 583 l 611 583 b 472 458 528 583 472 528 b 611 333 472 389 528 333 l 653 333 l 653 278 b 521 236 653 278 597 236 b 368 389 431 236 368 299 l 368 583 b 521 736 368 674 431 736 b 750 639 625 736 639 639 b 903 764 854 639 903 688 b 521 1000 903 861 764 1000 b 56 583 236 1000 56 819 z "},"F":{"ha":924,"x_min":null,"x_max":null,"o":"m 771 694 b 924 833 868 694 924 750 b 771 972 924 917 868 972 l 243 972 b 90 833 146 972 90 917 l 90 125 b 243 -14 90 42 146 -14 b 396 125 340 -14 396 42 l 396 306 l 604 306 b 757 444 701 306 757 361 b 604 583 757 528 701 583 l 396 583 l 396 694 z "},"а":{"ha":1000,"x_min":null,"x_max":null,"o":"m 417 458 l 493 667 l 507 667 l 583 458 z m 354 208 l 646 208 l 681 125 b 847 -14 715 42 771 -14 b 1000 125 938 -14 1000 49 b 965 250 1000 167 965 250 l 743 833 b 500 1000 703 938 639 1000 b 257 833 361 1000 299 938 l 35 250 b 0 125 35 250 0 167 b 153 -14 0 49 63 -14 b 319 125 229 -14 285 42 z "},"б":{"ha":993,"x_min":null,"x_max":null,"o":"m 563 382 b 653 313 625 382 653 354 b 563 243 653 271 624 243 l 396 243 l 396 382 z m 396 625 l 396 708 l 750 708 b 896 840 847 708 896 757 b 750 972 896 924 847 972 b 243 972 750 972 274 972 b 90 833 146 972 90 917 l 90 139 b 243 0 90 56 146 0 l 563 0 b 972 313 833 0 972 139 b 561 625 972 486 833 625 z "},"в":{"ha":1007,"x_min":null,"x_max":null,"o":"m 396 736 l 521 736 b 604 674 576 736 604 708 b 521 611 604 639 576 611 l 396 611 z m 396 389 l 563 389 b 660 313 625 389 660 354 b 563 236 660 271 625 236 l 396 236 z m 243 972 b 90 833 146 972 92 917 l 90 139 b 243 0 90 56 146 0 l 563 0 b 979 285 854 0 979 125 b 771 514 979 472 771 514 l 771 528 b 924 715 771 528 924 569 b 521 972 924 861 813 972 z "},"г":{"ha":868,"x_min":null,"x_max":null,"o":"m 243 972 b 90 833 146 972 90 917 l 90 125 b 243 -14 90 42 146 -14 b 396 125 340 -14 396 42 l 396 694 l 715 694 b 868 833 813 694 868 750 b 715 972 868 917 813 972 z "},"д":{"ha":1139,"x_min":null,"x_max":null,"o":"m 111 278 b -14 154 28 278 -14 236 l -14 -69 b 139 -208 -14 -153 42 -208 b 292 -69 236 -208 292 -153 l 292 0 l 813 0 l 813 -69 b 965 -208 813 -153 868 -208 b 1118 -69 1063 -208 1118 -153 l 1118 151 b 993 278 1118 236 1076 278 l 979 278 l 979 833 b 826 972 979 917 924 972 l 347 972 b 194 833 250 972 194 917 l 194 500 b 111 278 194 375 111 278 z m 674 278 l 424 278 l 424 292 b 500 500 424 292 500 375 l 500 694 l 674 694 z "},"е":{"ha":951,"x_min":null,"x_max":null,"o":"m 771 694 b 924 833 868 694 924 750 b 771 972 924 917 868 972 l 243 972 b 90 833 146 972 90 917 l 90 139 b 243 0 90 56 146 0 l 785 0 b 938 139 882 0 938 56 b 785 278 938 222 882 278 l 396 278 l 396 361 l 660 361 b 799 486 743 361 799 417 b 660 611 799 556 743 611 l 396 611 l 396 694 z "},"ж":{"ha":1444,"x_min":null,"x_max":null,"o":"m 722 986 b 569 847 625 986 569 931 l 569 667 l 278 944 b 167 986 278 944 236 986 b 28 847 83 986 28 931 b 83 736 28 778 83 736 l 285 542 l 56 250 b 0 125 56 250 0 181 b 153 -14 0 42 56 -14 b 285 56 229 -14 285 56 l 514 347 l 569 299 l 569 125 b 722 -14 569 42 625 -14 b 875 125 819 -14 875 42 l 875 299 l 931 347 l 1160 56 b 1292 -14 1160 56 1215 -14 b 1444 125 1389 -14 1444 42 b 1389 250 1444 181 1389 250 l 1160 542 l 1361 736 b 1417 847 1361 736 1417 778 b 1278 986 1417 931 1361 986 b 1167 944 1208 986 1167 944 l 875 667 l 875 847 b 722 986 875 931 819 986 z "},"з":{"ha":903,"x_min":null,"x_max":null,"o":"m 388 625 b 257 500 299 625 257 569 b 388 375 257 432 313 375 l 451 375 b 556 306 521 375 556 340 b 417 236 556 271 521 236 b 174 333 299 236 285 333 b 21 208 69 333 21 285 b 417 -28 21 111 160 -28 b 875 278 736 -28 875 111 b 681 486 875 444 681 486 l 681 500 b 847 694 681 500 847 542 b 431 1000 847 861 708 1000 b 49 764 188 1000 49 861 b 201 639 49 688 97 639 b 431 736 313 639 326 736 b 528 681 500 736 528 708 b 451 625 528 653 500 625 z "},"и":{"ha":1083,"x_min":null,"x_max":null,"o":"m 396 528 l 396 847 b 243 986 396 931 340 986 b 90 847 146 986 90 931 l 90 125 b 243 -14 90 43 146 -14 b 438 125 326 -14 375 35 l 674 444 l 688 444 l 688 125 b 840 -14 688 42 743 -14 b 993 125 938 -14 993 42 l 993 847 b 840 986 993 929 938 986 b 646 847 757 986 708 938 l 410 528 z "},"й":{"ha":1083,"x_min":null,"x_max":null,"o":"m 396 528 l 396 847 b 243 986 396 931 340 986 b 90 847 146 986 90 931 l 90 125 b 243 -14 90 43 146 -14 b 438 125 326 -14 375 35 l 674 444 l 688 444 l 688 125 b 840 -14 688 42 743 -14 b 993 125 938 -14 993 42 l 993 847 b 840 986 993 929 938 986 b 646 847 757 986 708 938 l 410 528 z m 556 1250 b 361 1333 451 1250 465 1333 b 264 1236 306 1333 264 1292 b 556 1028 264 1139 375 1028 b 847 1236 736 1028 847 1139 b 750 1333 847 1292 806 1333 b 556 1250 646 1333 660 1250 z "},"к":{"ha":993,"x_min":null,"x_max":null,"o":"m 472 354 l 708 56 b 840 -14 708 56 764 -14 b 993 125 938 -14 993 42 b 938 250 993 181 938 250 l 701 549 l 896 736 b 951 847 896 736 951 778 b 813 986 951 931 896 986 b 701 944 743 986 701 944 l 396 653 l 396 847 b 243 986 396 931 340 986 b 90 847 146 986 90 931 l 90 125 b 243 -14 90 42 146 -14 b 396 125 340 -14 396 42 l 396 285 z "},"л":{"ha":1069,"x_min":null,"x_max":null,"o":"m 486 500 l 486 694 l 674 694 l 674 125 b 826 -14 674 42 729 -14 b 979 125 924 -14 979 42 l 979 833 b 826 972 979 917 924 972 l 333 972 b 181 833 236 972 181 917 l 181 500 b -14 111 181 181 -14 250 b 125 -28 -14 28 42 -28 b 486 500 306 -28 486 153 z "},"м":{"ha":1361,"x_min":null,"x_max":null,"o":"m 681 83 b 847 222 764 83 813 132 l 951 486 l 965 486 l 1028 125 b 1188 -14 1042 42 1097 -14 b 1333 125 1278 -14 1333 42 b 1319 250 1333 181 1319 250 l 1222 833 b 1021 1000 1207 931 1139 1000 b 813 833 917 1000 853 938 l 688 508 l 674 508 l 549 833 b 340 1000 507 938 444 1000 b 139 833 222 1000 156 931 l 42 250 b 28 125 42 250 28 181 b 174 -14 28 42 83 -14 b 333 125 264 -14 319 42 l 396 486 l 410 486 l 514 222 b 681 83 547 132 597 83 z "},"н":{"ha":1069,"x_min":null,"x_max":null,"o":"m 396 847 b 243 986 396 931 340 986 b 90 847 146 986 90 931 l 90 125 b 243 -14 90 42 146 -14 b 396 125 340 -14 396 42 l 396 347 l 674 347 l 674 125 b 826 -14 674 42 729 -14 b 979 125 924 -14 979 42 l 979 847 b 826 986 979 931 924 986 b 674 847 729 986 674 931 l 674 611 l 396 611 z "},"о":{"ha":1042,"x_min":null,"x_max":null,"o":"m 986 583 b 521 1000 986 819 806 1000 b 56 583 236 1000 56 819 l 56 389 b 521 -28 56 153 236 -28 b 986 389 806 -28 986 153 z m 674 389 b 521 208 674 278 604 208 b 368 389 438 208 368 278 l 368 583 b 521 764 368 694 438 764 b 674 583 604 764 674 694 z "},"п":{"ha":1069,"x_min":null,"x_max":null,"o":"m 243 972 b 90 833 146 972 90 917 l 90 125 b 243 -14 90 42 146 -14 b 396 125 340 -14 396 42 l 396 694 l 674 694 l 674 125 b 826 -14 674 42 729 -14 b 979 125 924 -14 979 42 l 979 833 b 826 972 979 917 924 972 z "},"р":{"ha":979,"x_min":null,"x_max":null,"o":"m 396 542 l 396 722 l 521 722 b 632 632 590 722 632 681 b 521 542 632 583 590 542 z m 521 292 b 951 632 799 292 951 444 b 521 972 951 819 799 972 l 243 972 b 90 833 146 972 90 917 l 90 125 b 243 -14 90 42 146 -14 b 396 125 340 -14 396 42 l 396 292 z "},"с":{"ha":938,"x_min":null,"x_max":null,"o":"m 56 389 b 521 -28 56 153 236 -28 b 917 208 778 -28 917 111 b 764 333 917 285 868 333 b 521 236 653 333 639 236 b 368 389 431 236 368 299 l 368 583 b 521 736 368 674 431 736 b 750 639 625 736 639 639 b 903 764 854 639 903 688 b 521 1000 903 861 764 1000 b 56 583 236 1000 56 819 z "},"т":{"ha":917,"x_min":null,"x_max":null,"o":"m 306 694 l 306 125 b 458 -14 306 42 361 -14 b 611 125 556 -14 611 42 l 611 694 l 764 694 b 917 833 861 694 917 750 b 764 972 917 917 861 972 l 153 972 b 0 833 56 972 0 917 b 153 694 0 750 56 694 z "},"у":{"ha":924,"x_min":null,"x_max":null,"o":"m 306 264 b 264 236 306 264 292 236 b 167 264 236 236 222 264 b 42 139 97 264 42 208 b 264 -28 42 49 118 -28 b 667 264 458 -28 594 111 l 889 722 b 924 847 889 722 924 778 b 771 986 924 924 861 986 b 604 847 694 986 642 931 l 486 556 l 472 556 l 319 847 b 153 986 278 931 229 986 b 0 847 63 986 0 924 b 35 722 0 778 35 722 z "},"ф":{"ha":1375,"x_min":null,"x_max":null,"o":"m 840 653 b 910 667 840 653 868 667 b 1021 569 986 667 1021 632 l 1021 403 b 910 306 1021 340 986 306 b 840 319 868 306 840 319 z m 688 -97 b 840 42 785 -97 840 -42 l 840 83 b 993 56 840 83 910 56 b 1326 403 1188 56 1326 194 l 1326 569 b 993 917 1326 778 1188 917 b 840 889 910 917 840 889 l 840 931 b 688 1069 840 1013 785 1069 b 535 931 590 1069 535 1013 l 535 889 b 382 917 535 889 465 917 b 49 569 188 917 49 778 l 49 403 b 382 56 49 194 188 56 b 535 83 465 56 535 83 l 535 42 b 688 -97 535 -42 590 -97 z m 535 319 b 465 306 535 319 507 306 b 354 403 389 306 354 340 l 354 569 b 465 667 354 632 389 667 b 535 653 507 667 535 653 z "},"х":{"ha":931,"x_min":null,"x_max":null,"o":"m 63 250 b 7 125 63 250 7 181 b 153 -14 7 42 63 -14 b 292 56 236 -14 292 56 l 458 257 l 472 257 l 639 56 b 778 -14 639 56 694 -14 b 924 125 868 -14 924 42 b 868 250 924 181 868 250 l 660 500 l 840 722 b 896 847 840 722 896 792 b 750 986 896 931 840 986 b 611 917 667 986 611 917 l 472 736 l 458 736 l 319 917 b 181 986 319 917 264 986 b 35 847 90 986 35 931 b 90 722 35 792 90 722 l 271 500 z "},"ц":{"ha":1125,"x_min":null,"x_max":null,"o":"m 799 0 l 799 -69 b 951 -208 799 -153 854 -208 b 1104 -69 1049 -208 1104 -153 l 1104 153 b 979 278 1104 236 1063 278 l 965 278 l 965 847 b 813 986 965 931 910 986 b 660 847 715 986 660 931 l 660 278 l 396 278 l 396 847 b 243 986 396 931 340 986 b 90 847 146 986 90 931 l 90 139 b 243 0 90 56 146 0 z "},"ч":{"ha":1028,"x_min":null,"x_max":null,"o":"m 785 986 b 632 846 688 986 632 931 l 632 569 b 486 542 632 569 576 542 b 368 667 417 542 368 590 l 368 847 b 215 986 368 931 313 986 b 63 847 119 986 63 931 l 63 667 b 431 292 63 444 215 292 b 632 319 549 292 632 319 l 632 125 b 785 -14 632 42 688 -14 b 938 125 882 -14 938 42 l 938 847 b 785 986 938 931 882 986 z "},"ш":{"ha":1528,"x_min":null,"x_max":null,"o":"m 1285 0 b 1438 139 1382 0 1438 56 l 1438 847 b 1285 986 1438 931 1382 986 b 1132 847 1188 986 1132 931 l 1132 278 l 917 278 l 917 847 b 764 986 917 931 861 986 b 611 847 667 986 611 931 l 611 278 l 396 278 l 396 847 b 243 986 396 931 340 986 b 90 847 146 986 90 931 l 90 139 b 243 0 90 56 146 0 z "},"щ":{"ha":1597,"x_min":null,"x_max":null,"o":"m 917 278 l 917 847 b 764 986 917 931 861 986 b 611 847 667 986 611 931 l 611 278 l 396 278 l 396 847 b 243 986 396 931 340 986 b 90 847 146 986 90 931 l 90 139 b 243 0 90 56 146 0 l 1271 0 l 1271 -69 b 1424 -208 1271 -153 1326 -208 b 1576 -69 1521 -208 1576 -153 l 1576 153 b 1451 278 1576 236 1535 278 l 1438 278 l 1438 847 b 1285 986 1438 931 1382 986 b 1132 847 1188 986 1132 931 l 1132 278 z "},"ъ":{"ha":1111,"x_min":null,"x_max":null,"o":"m 528 681 b 528 833 526 824 528 828 b 375 972 528 917 472 972 l 139 972 b -14 833 42 972 -14 917 b 139 694 -14 750 42 694 l 222 694 l 222 139 b 375 0 222 56 278 0 l 653 0 b 1083 340 931 0 1083 153 b 653 681 1083 528 931 681 z m 653 431 b 764 340 722 431 764 389 b 653 250 764 292 722 250 l 528 250 l 528 431 z "},"ы":{"ha":1424,"x_min":null,"x_max":null,"o":"m 507 431 b 618 340 576 431 618 389 b 507 250 618 292 576 250 l 396 250 l 396 431 z m 396 681 l 396 847 b 243 986 396 931 340 986 b 90 847 146 986 90 931 l 90 139 b 243 0 90 56 146 0 l 507 0 b 938 340 785 0 938 153 b 507 681 938 528 785 681 z m 1333 847 b 1181 986 1333 931 1278 986 b 1028 847 1083 986 1028 931 l 1028 125 b 1181 -14 1028 42 1083 -14 b 1333 125 1278 -14 1333 42 z "},"ь":{"ha":979,"x_min":null,"x_max":null,"o":"m 521 431 b 632 340 590 431 632 389 b 521 250 632 292 590 250 l 396 250 l 396 431 z m 396 681 l 396 847 b 243 986 396 931 340 986 b 90 847 146 986 90 931 l 90 139 b 243 0 90 56 146 0 l 521 0 b 951 340 799 0 951 153 b 521 681 951 528 799 681 z "},"э":{"ha":938,"x_min":null,"x_max":null,"o":"m 882 583 b 417 1000 882 819 701 1000 b 35 764 174 1000 35 861 b 188 639 35 688 83 639 b 417 736 299 639 313 736 b 569 618 514 736 556 694 l 410 618 b 271 493 319 618 271 569 b 410 368 271 417 319 368 l 576 368 b 417 236 569 292 514 236 b 174 333 299 236 285 333 b 21 208 69 333 21 285 b 417 -28 21 111 160 -28 b 882 389 701 -28 882 153 z "},"ю":{"ha":1444,"x_min":null,"x_max":null,"o":"m 396 847 b 243 986 396 931 340 986 b 90 847 146 986 90 931 l 90 125 b 243 -14 90 42 146 -14 b 396 125 340 -14 396 42 l 396 347 l 514 347 b 951 -28 526 125 692 -28 b 1389 375 1222 -28 1389 139 l 1389 597 b 951 1000 1389 833 1222 1000 b 514 611 686 1000 519 839 l 396 611 z m 826 597 b 951 764 826 708 882 764 b 1076 597 1021 764 1076 708 l 1076 375 b 951 208 1076 264 1021 208 b 826 375 882 208 826 264 z "},"я":{"ha":1007,"x_min":null,"x_max":null,"o":"m 479 972 b 63 660 215 972 63 819 b 222 431 63 486 222 431 l 222 417 l 76 250 b 21 125 76 250 21 188 b 174 -14 21 42 76 -14 b 306 56 250 -14 306 56 l 542 347 l 611 347 l 611 124 b 764 -14 611 42 667 -14 b 917 125 861 -14 917 42 l 917 833 b 764 972 917 917 861 972 b 479 972 764 972 540 972 z m 479 583 b 382 660 417 583 382 618 b 479 736 382 701 417 736 b 611 736 503 736 611 736 l 611 583 z "},"a":{"ha":1000,"x_min":null,"x_max":null,"o":"m 417 458 l 493 667 l 507 667 l 583 458 z m 354 208 l 646 208 l 681 125 b 847 -14 715 42 771 -14 b 1000 125 938 -14 1000 49 b 965 250 1000 167 965 250 l 743 833 b 500 1000 703 938 639 1000 b 257 833 361 1000 299 938 l 35 250 b 0 125 35 250 0 167 b 153 -14 0 49 63 -14 b 319 125 229 -14 285 42 z "},"b":{"ha":1007,"x_min":null,"x_max":null,"o":"m 396 736 l 521 736 b 604 674 576 736 604 708 b 521 611 604 639 576 611 l 396 611 z m 396 389 l 563 389 b 660 313 625 389 660 354 b 563 236 660 271 625 236 l 396 236 z m 243 972 b 90 833 146 972 92 917 l 90 139 b 243 0 90 56 146 0 l 563 0 b 979 285 854 0 979 125 b 771 514 979 472 771 514 l 771 528 b 924 715 771 528 924 569 b 521 972 924 861 813 972 z "},"c":{"ha":931,"x_min":null,"x_max":null,"o":"m 56 389 b 521 -28 56 153 236 -28 b 917 208 778 -28 917 111 b 764 333 917 285 868 333 b 521 236 653 333 639 236 b 368 389 431 236 368 299 l 368 583 b 521 736 368 674 431 736 b 750 639 625 736 639 639 b 903 764 854 639 903 688 b 521 1000 903 861 764 1000 b 56 583 236 1000 56 819 z "},"d":{"ha":1021,"x_min":null,"x_max":null,"o":"m 965 556 b 486 972 965 792 785 972 l 243 972 b 90 833 146 972 90 917 l 90 139 b 243 0 90 56 146 0 l 486 0 b 965 417 785 0 965 181 z m 486 722 b 653 556 583 722 653 653 l 653 417 b 486 250 653 319 583 250 l 396 250 l 396 722 z "},"e":{"ha":951,"x_min":null,"x_max":null,"o":"m 771 694 b 924 833 868 694 924 750 b 771 972 924 917 868 972 l 243 972 b 90 833 146 972 90 917 l 90 139 b 243 0 90 56 146 0 l 785 0 b 938 139 882 0 938 56 b 785 278 938 222 882 278 l 396 278 l 396 361 l 660 361 b 799 486 743 361 799 417 b 660 611 799 556 743 611 l 396 611 l 396 694 z "},"f":{"ha":924,"x_min":null,"x_max":null,"o":"m 771 694 b 924 833 868 694 924 750 b 771 972 924 917 868 972 l 243 972 b 90 833 146 972 90 917 l 90 125 b 243 -14 90 42 146 -14 b 396 125 340 -14 396 42 l 396 306 l 604 306 b 757 444 701 306 757 361 b 604 583 757 528 701 583 l 396 583 l 396 694 z "},"g":{"ha":986,"x_min":null,"x_max":null,"o":"m 56 389 b 521 -28 56 153 236 -28 b 931 208 778 -28 931 111 l 931 458 b 806 583 931 542 889 583 l 611 583 b 472 458 528 583 472 528 b 611 333 472 389 528 333 l 653 333 l 653 278 b 521 236 653 278 597 236 b 368 389 431 236 368 299 l 368 583 b 521 736 368 674 431 736 b 750 639 625 736 639 639 b 903 764 854 639 903 688 b 521 1000 903 861 764 1000 b 56 583 236 1000 56 819 z "},"h":{"ha":1069,"x_min":null,"x_max":null,"o":"m 396 847 b 243 986 396 931 340 986 b 90 847 146 986 90 931 l 90 125 b 243 -14 90 42 146 -14 b 396 125 340 -14 396 42 l 396 347 l 674 347 l 674 125 b 826 -14 674 42 729 -14 b 979 125 924 -14 979 42 l 979 847 b 826 986 979 931 924 986 b 674 847 729 986 674 931 l 674 611 l 396 611 z "},"i":{"ha":486,"x_min":null,"x_max":null,"o":"m 396 847 b 243 986 396 931 340 986 b 90 847 146 986 90 931 l 90 125 b 243 -14 90 42 146 -14 b 396 125 340 -14 396 42 z "},"j":{"ha":646,"x_min":null,"x_max":null,"o":"m 250 417 b -28 111 250 181 -28 292 b 125 -28 -28 28 28 -28 b 556 417 375 -28 556 153 l 556 847 b 403 986 556 931 500 986 b 250 847 306 986 250 931 z "},"k":{"ha":993,"x_min":null,"x_max":null,"o":"m 472 354 l 708 56 b 840 -14 708 56 764 -14 b 993 125 938 -14 993 42 b 938 250 993 181 938 250 l 701 549 l 896 736 b 951 847 896 736 951 778 b 813 986 951 931 896 986 b 701 944 743 986 701 944 l 396 653 l 396 847 b 243 986 396 931 340 986 b 90 847 146 986 90 931 l 90 125 b 243 -14 90 42 146 -14 b 396 125 340 -14 396 42 l 396 285 z "},"l":{"ha":882,"x_min":null,"x_max":null,"o":"m 396 278 l 396 847 b 243 986 396 931 340 986 b 90 847 146 986 90 931 l 90 139 b 243 0 90 56 146 0 l 729 0 b 882 139 826 0 882 56 b 729 278 882 222 826 278 z "},"m":{"ha":1361,"x_min":null,"x_max":null,"o":"m 681 83 b 847 222 764 83 813 132 l 951 486 l 965 486 l 1028 125 b 1188 -14 1042 42 1097 -14 b 1333 125 1278 -14 1333 42 b 1319 250 1333 181 1319 250 l 1222 833 b 1021 1000 1207 931 1139 1000 b 813 833 917 1000 853 938 l 688 508 l 674 508 l 549 833 b 340 1000 507 938 444 1000 b 139 833 222 1000 156 931 l 42 250 b 28 125 42 250 28 181 b 174 -14 28 42 83 -14 b 333 125 264 -14 319 42 l 396 486 l 410 486 l 514 222 b 681 83 547 132 597 83 z "},"n":{"ha":1083,"x_min":null,"x_max":null,"o":"m 410 444 l 646 125 b 840 -14 708 35 757 -14 b 993 125 938 -14 993 43 l 993 847 b 840 986 993 931 938 986 b 688 847 743 986 688 931 l 688 528 l 674 528 l 438 847 b 243 986 375 938 326 986 b 90 847 146 986 90 929 l 90 125 b 243 -14 90 42 146 -14 b 396 125 340 -14 396 42 l 396 444 z "},"o":{"ha":1042,"x_min":null,"x_max":null,"o":"m 986 583 b 521 1000 986 819 806 1000 b 56 583 236 1000 56 819 l 56 389 b 521 -28 56 153 236 -28 b 986 389 806 -28 986 153 z m 674 389 b 521 208 674 278 604 208 b 368 389 438 208 368 278 l 368 583 b 521 764 368 694 438 764 b 674 583 604 764 674 694 z "},"p":{"ha":979,"x_min":null,"x_max":null,"o":"m 396 542 l 396 722 l 521 722 b 632 632 590 722 632 681 b 521 542 632 583 590 542 z m 521 292 b 951 632 799 292 951 444 b 521 972 951 819 799 972 l 243 972 b 90 833 146 972 90 917 l 90 125 b 243 -14 90 42 146 -14 b 396 125 340 -14 396 42 l 396 292 z "},"q":{"ha":1042,"x_min":null,"x_max":null,"o":"m 917 153 b 986 389 917 153 986 243 l 986 583 b 521 1000 986 819 806 1000 b 56 583 236 1000 56 819 l 56 389 b 521 -28 56 153 236 -28 b 701 0 646 -28 701 0 l 771 -62 b 847 -90 771 -62 799 -90 b 979 42 924 -90 979 -35 b 951 118 979 90 951 118 z m 674 389 b 597 417 674 389 646 417 b 465 285 521 417 465 361 b 493 208 465 236 493 208 b 368 389 438 222 368 292 l 368 583 b 521 764 368 694 438 764 b 674 583 604 764 674 694 z "},"r":{"ha":1014,"x_min":null,"x_max":null,"o":"m 479 347 l 701 56 b 826 -14 701 56 757 -14 b 993 125 938 -14 993 42 b 938 250 993 181 938 250 l 799 417 l 799 431 b 951 660 799 431 951 486 b 535 972 951 847 826 972 l 243 972 b 90 833 146 972 90 917 l 90 125 b 243 -14 90 42 146 -14 b 396 125 340 -14 396 42 l 396 347 z m 396 583 l 396 736 l 535 736 b 632 660 597 736 632 701 b 535 583 632 618 597 583 z "},"s":{"ha":896,"x_min":null,"x_max":null,"o":"m 556 306 b 417 236 556 271 521 236 b 174 333 299 236 285 333 b 21 208 69 333 21 285 b 417 -28 21 111 160 -28 b 875 306 722 -28 875 125 b 361 681 875 625 361 583 b 458 736 361 708 389 736 b 688 639 563 736 576 639 b 840 764 792 639 840 688 b 458 1000 840 861 701 1000 b 42 681 181 1000 42 861 b 556 306 42 347 556 389 z "},"t":{"ha":917,"x_min":null,"x_max":null,"o":"m 306 694 l 306 125 b 458 -14 306 42 361 -14 b 611 125 556 -14 611 42 l 611 694 l 764 694 b 917 833 861 694 917 750 b 764 972 917 917 861 972 l 153 972 b 0 833 56 972 0 917 b 153 694 0 750 56 694 z "},"u":{"ha":1069,"x_min":null,"x_max":null,"o":"m 535 -28 b 979 375 813 -28 979 139 l 979 847 b 826 986 979 931 924 986 b 674 847 729 986 674 931 l 674 375 b 535 222 674 278 618 222 b 396 375 451 222 396 278 l 396 847 b 243 986 396 931 340 986 b 90 847 146 986 90 931 l 90 375 b 535 -28 90 139 257 -28 z "},"v":{"ha":972,"x_min":null,"x_max":null,"o":"m 493 319 l 479 319 l 319 847 b 153 986 296 931 243 986 b 0 847 63 986 0 924 b 35 722 0 806 35 722 l 243 139 b 486 -28 279 35 347 -28 b 729 139 625 -28 693 35 l 938 722 b 972 847 938 722 972 806 b 819 986 972 924 910 986 b 653 847 729 986 676 931 z "},"w":{"ha":1514,"x_min":null,"x_max":null,"o":"m 764 500 l 840 139 b 1076 -28 867 42 938 -28 b 1313 139 1215 -28 1286 42 l 1472 722 b 1500 847 1472 722 1500 806 b 1347 986 1500 924 1438 986 b 1174 847 1250 986 1194 931 l 1063 389 l 1049 389 l 958 819 b 757 986 936 924 875 986 b 556 819 639 986 578 924 l 465 389 l 451 389 l 340 847 b 167 986 319 931 264 986 b 14 847 76 986 14 924 b 42 722 14 806 42 722 l 201 139 b 438 -28 228 42 299 -28 b 674 139 576 -28 647 42 l 750 500 z "},"x":{"ha":931,"x_min":null,"x_max":null,"o":"m 63 250 b 7 125 63 250 7 181 b 153 -14 7 42 63 -14 b 292 56 236 -14 292 56 l 458 257 l 472 257 l 639 56 b 778 -14 639 56 694 -14 b 924 125 868 -14 924 42 b 868 250 924 181 868 250 l 660 500 l 840 722 b 896 847 840 722 896 792 b 750 986 896 931 840 986 b 611 917 667 986 611 917 l 472 736 l 458 736 l 319 917 b 181 986 319 917 264 986 b 35 847 90 986 35 931 b 90 722 35 792 90 722 l 271 500 z "},"y":{"ha":944,"x_min":null,"x_max":null,"o":"m 465 653 l 285 917 b 160 986 285 917 236 986 b 0 847 56 986 0 931 b 56 722 0 792 56 722 l 319 347 l 319 125 b 472 -14 319 42 375 -14 b 625 125 569 -14 625 42 l 625 347 l 889 722 b 944 847 889 722 944 792 b 785 986 944 931 889 986 b 660 917 708 986 660 917 l 479 653 z "},"z":{"ha":875,"x_min":null,"x_max":null,"o":"m 56 278 b 0 139 56 278 0 222 b 153 0 0 56 56 0 l 722 0 b 875 139 819 0 875 56 b 722 278 875 222 819 278 l 458 278 l 458 292 l 806 694 b 861 833 806 694 861 750 b 708 972 861 917 806 972 l 167 972 b 14 833 69 972 14 917 b 167 694 14 750 69 694 l 431 694 l 431 681 z "},"ѓ":{"ha":868,"x_min":null,"x_max":null,"o":"m 243 972 b 90 833 146 972 90 917 l 90 125 b 243 -14 90 42 146 -14 b 396 125 340 -14 396 42 l 396 694 l 715 694 b 868 833 813 694 868 750 b 715 972 868 917 813 972 z m 472 1069 b 597 1153 535 1069 569 1104 l 653 1250 b 674 1319 653 1250 674 1278 b 563 1417 674 1368 625 1417 b 410 1306 472 1417 424 1368 l 389 1208 b 382 1153 389 1208 382 1181 b 472 1069 382 1104 417 1069 z "},"ў":{"ha":924,"x_min":null,"x_max":null,"o":"m 458 1222 b 264 1306 354 1222 368 1306 b 167 1208 208 1306 167 1264 b 458 1000 167 1111 278 1000 b 750 1208 639 1000 750 1111 b 653 1306 750 1264 708 1306 b 458 1222 549 1306 563 1222 z m 306 264 b 264 236 306 264 292 236 b 167 264 236 236 222 264 b 42 139 97 264 42 208 b 264 -28 42 49 118 -28 b 667 264 458 -28 594 111 l 889 722 b 924 847 889 722 924 778 b 771 986 924 924 861 986 b 604 847 694 986 642 931 l 486 556 l 472 556 l 319 847 b 153 986 278 931 229 986 b 0 847 63 986 0 924 b 35 722 0 778 35 722 z "},"џ":{"ha":1069,"x_min":null,"x_max":null,"o":"m 382 0 l 382 -69 b 535 -208 382 -153 438 -208 b 688 -69 632 -208 688 -153 l 688 0 l 826 0 b 979 139 924 0 979 56 l 979 847 b 826 986 979 931 924 986 b 674 847 729 986 674 931 l 674 278 l 396 278 l 396 847 b 243 986 396 931 340 986 b 90 847 146 986 90 931 l 90 139 b 243 0 90 56 146 0 z "},"ћ":{"ha":1111,"x_min":null,"x_max":null,"o":"m 514 347 b 646 375 514 347 569 375 b 764 250 715 375 764 326 l 764 125 b 917 -14 764 42 819 -14 b 1069 125 1013 -14 1069 42 l 1069 250 b 701 625 1069 472 917 625 b 514 597 583 625 514 597 l 514 694 l 625 694 b 778 833 722 694 778 750 b 625 972 778 917 722 972 l 125 972 b -28 833 28 972 -28 917 b 125 694 -28 750 28 694 l 208 694 l 208 125 b 361 -14 208 42 264 -14 b 514 125 458 -14 514 42 z "},"ќ":{"ha":993,"x_min":null,"x_max":null,"o":"m 500 1028 b 625 1111 563 1028 597 1063 l 681 1208 b 701 1278 681 1208 701 1236 b 590 1375 701 1326 653 1375 b 438 1264 500 1375 451 1326 l 417 1167 b 410 1111 417 1167 410 1139 b 500 1028 410 1063 444 1028 z m 472 354 l 708 56 b 840 -14 708 56 764 -14 b 993 125 938 -14 993 42 b 938 250 993 181 938 250 l 701 549 l 896 736 b 951 847 896 736 951 778 b 813 986 951 931 896 986 b 701 944 743 986 701 944 l 396 653 l 396 847 b 243 986 396 931 340 986 b 90 847 146 986 90 931 l 90 125 b 243 -14 90 42 146 -14 b 396 125 340 -14 396 42 l 396 285 z "},"њ":{"ha":1479,"x_min":null,"x_max":null,"o":"m 938 653 l 938 847 b 785 986 938 931 882 986 b 632 847 688 986 632 931 l 632 639 l 396 639 l 396 847 b 243 986 396 931 340 986 b 90 847 146 986 90 931 l 90 125 b 243 -14 90 42 146 -14 b 396 125 340 -14 396 42 l 396 375 l 632 375 l 632 139 b 785 0 632 56 694 0 l 1035 0 b 1451 326 1299 0 1451 153 b 1035 653 1451 500 1299 653 z m 1035 403 b 1132 326 1097 403 1132 368 b 1035 250 1132 285 1097 250 l 938 250 l 938 403 z "},"і":{"ha":486,"x_min":null,"x_max":null,"o":"m 396 847 b 243 986 396 931 340 986 b 90 847 146 986 90 931 l 90 125 b 243 -14 90 42 146 -14 b 396 125 340 -14 396 42 z "},"ґ":{"ha":868,"x_min":null,"x_max":null,"o":"m 243 972 b 90 833 146 972 90 917 l 90 125 b 243 -14 90 42 146 -14 b 396 125 340 -14 396 42 l 396 694 l 715 694 b 868 833 813 694 868 750 l 868 986 b 715 1125 868 1069 813 1125 b 563 986 618 1125 563 1069 l 563 972 z "},"љ":{"ha":1479,"x_min":null,"x_max":null,"o":"m 938 681 l 938 833 b 785 972 938 917 882 972 l 333 972 b 181 833 236 972 181 917 l 181 500 b -14 111 181 181 -14 250 b 125 -28 -14 28 42 -28 b 486 500 306 -28 486 153 l 486 694 l 632 694 l 632 139 b 785 0 632 56 694 0 l 1021 0 b 1451 340 1299 0 1451 153 b 1021 681 1451 528 1299 681 z m 1021 431 b 1132 340 1090 431 1132 389 b 1021 250 1132 292 1090 250 l 938 250 l 938 431 z "},"ё":{"ha":951,"x_min":null,"x_max":null,"o":"m 333 1056 b 472 1181 417 1056 472 1111 b 333 1306 472 1250 417 1306 b 194 1181 250 1306 194 1250 b 333 1056 194 1111 250 1056 z m 660 1056 b 799 1181 743 1056 799 1111 b 660 1306 799 1250 743 1306 b 521 1181 576 1306 521 1250 b 660 1056 521 1111 576 1056 z m 771 694 b 924 833 868 694 924 750 b 771 972 924 917 868 972 l 243 972 b 90 833 146 972 90 917 l 90 139 b 243 0 90 56 146 0 l 785 0 b 938 139 882 0 938 56 b 785 278 938 222 882 278 l 396 278 l 396 361 l 660 361 b 799 486 743 361 799 417 b 660 611 799 556 743 611 l 396 611 l 396 694 z "},"є":{"ha":931,"x_min":null,"x_max":null,"o":"m 56 389 b 521 -28 56 153 236 -28 b 917 208 778 -28 917 111 b 764 333 917 285 868 333 b 521 236 653 333 639 236 b 361 368 424 236 368 292 l 528 368 b 667 493 618 368 667 417 b 528 618 667 569 618 618 l 368 618 b 521 736 382 694 424 736 b 750 639 625 736 639 639 b 903 764 854 639 903 688 b 521 1000 903 861 764 1000 b 56 583 236 1000 56 819 z "},"ђ":{"ha":1097,"x_min":null,"x_max":null,"o":"m 764 264 b 632 56 764 125 632 167 b 743 -56 632 -7 681 -56 b 1069 264 931 -56 1069 83 b 701 625 1069 472 917 625 b 514 597 583 625 514 597 l 514 694 l 625 694 b 778 833 722 694 778 750 b 625 972 778 917 722 972 l 125 972 b -28 833 28 972 -28 917 b 125 694 -28 750 28 694 l 208 694 l 208 125 b 361 -14 208 42 264 -14 b 514 125 458 -14 514 42 l 514 347 b 646 375 514 347 569 375 b 764 264 715 375 764 333 z "},"ј":{"ha":646,"x_min":null,"x_max":null,"o":"m 250 417 b -28 111 250 181 -28 292 b 125 -28 -28 28 28 -28 b 556 417 375 -28 556 153 l 556 847 b 403 986 556 931 500 986 b 250 847 306 986 250 931 z "},"ѕ":{"ha":896,"x_min":null,"x_max":null,"o":"m 556 306 b 417 236 556 271 521 236 b 174 333 299 236 285 333 b 21 208 69 333 21 285 b 417 -28 21 111 160 -28 b 875 306 722 -28 875 125 b 361 681 875 625 361 583 b 458 736 361 708 389 736 b 688 639 563 736 576 639 b 840 764 792 639 840 688 b 458 1000 840 861 701 1000 b 42 681 181 1000 42 861 b 556 306 42 347 556 389 z "},"ї":{"ha":528,"x_min":null,"x_max":null,"o":"m 97 1069 b 236 1194 181 1069 236 1125 b 97 1319 236 1264 181 1319 b -42 1194 14 1319 -42 1264 b 97 1069 -42 1125 14 1069 z m 431 1069 b 569 1194 514 1069 569 1125 b 431 1319 569 1264 514 1319 b 292 1194 347 1319 292 1264 b 431 1069 292 1125 347 1069 z m 417 847 b 264 986 417 931 361 986 b 111 847 167 986 111 931 l 111 125 b 264 -14 111 42 167 -14 b 417 125 361 -14 417 42 z "}," ":{"ha":389,"x_min":null,"x_max":null,"o":""}}}
